<?xml version="1.0" encoding="utf-8"?>
<!-- Generator: Adobe Illustrator 24.3.0, SVG Export Plug-In . SVG Version: 6.00 Build 0)  -->
<svg version="1.1" id="Capa_1" xmlns="http://www.w3.org/2000/svg" xmlns:xlink="http://www.w3.org/1999/xlink" x="0px" y="0px"
	 viewBox="0 0 512 512" style="enable-background:new 0 0 512 512;" xml:space="preserve">
<style type="text/css">
	.st0{fill:#CBE2FF;}
	.st1{fill:#BED8FB;}
	.st2{fill:#DC4655;}
	.st3{fill:#FFD164;}
</style>
<g>
	<path class="st0" d="M372.6,415.4c12.1,12.1,28.7,19.5,47.1,19.5c36.8,0,66.6-29.8,66.6-66.6c0-13.2-3.9-25.5-10.5-35.9
		c21-6.5,36.2-26.1,36.2-49.2c0-19.6-11-36.7-27.1-45.4c2.3-6.3,3.6-13.2,3.6-20.3c0-32.6-26.4-59.1-59.1-59.1
		c-5.1,0-10,0.6-14.7,1.8c-1.3-21.2-18.9-38.1-40.5-38.1c0,0-0.1,0-0.1,0c0.1-1.2,0.1-2.4,0.1-3.7c0-32.6-26.4-59.1-59.1-59.1
		c-19.2,0-36.3,9.2-47.1,23.5c-14.2-27.5-43-46.4-76.1-46.4c-47.3,0-85.6,38.3-85.6,85.6c0,0.4,0,0.8,0,1.2c-3.2-0.8-6.6-1.2-10-1.2
		c-22.4,0-40.5,18.1-40.5,40.5c0,5.9,1.3,11.6,3.6,16.6c-25.7,6.4-44.7,29.6-44.7,57.3c0,16.6,6.9,31.6,17.9,42.3
		C13.3,288.8,0,308.8,0,332C0,364.6,26.4,391,59.1,391c1.3,0,2.7-0.1,4-0.1c3.6,24.9,25,44,50.9,44c14.2,0,27.1-5.8,36.4-15.1"/>
	<path class="st1" d="M192,36.7c14.2,0,27.7,3.5,39.5,9.6c-27.4,14.3-46.1,42.9-46.1,76c0,0.4,0,0.8,0,1.2c-3.2-0.8-6.6-1.2-10-1.2
		c-22.4,0-40.5,18.1-40.5,40.5c0,5.9,1.3,11.6,3.6,16.6c-25.7,6.4-44.7,29.6-44.7,57.3c0,16.6,6.9,31.6,17.9,42.3
		C92.3,288.8,79,308.8,79,332c0,32.6,26.4,59.1,59.1,59.1c1.3,0,2.7-0.1,4-0.1c1.6,11.2,6.8,21.2,14.4,28.8l-6.1,0.1
		c-9.3,9.3-22.2,15.1-36.4,15.1c-25.9,0-47.3-19.1-50.9-44c-1.3,0.1-2.6,0.1-4,0.1C26.4,391,0,364.6,0,332
		c0-23.1,13.3-43.1,32.7-52.8c-11-10.7-17.9-25.7-17.9-42.3c0-27.6,19-50.8,44.7-57.3c-2.3-5.1-3.6-10.7-3.6-16.6
		c0-22.4,18.1-40.5,40.5-40.5c3.5,0,6.8,0.4,10,1.2c0-0.4,0-0.8,0-1.2C106.4,75.1,144.7,36.7,192,36.7L192,36.7z"/>
	<path class="st2" d="M112.9,512c-24.6-25.7-74.7-97.4-14.7-211.4c0,0,23.9,52.7,77.8,20.1c54-32.6,54-111.7,33.9-173.2
		c0,0,153.1,40.2,161.9,230.9c0,0,28.9-12.6,36.4-36.4c0,0,37.8,106.4-32.2,170h-65.4l-64.9-28.8L192.5,512L112.9,512z"/>
	<path class="st3" d="M171.2,512c-18.1-29-56.1-104.2-8.9-166.1c0,0,8.6,41.4,39.9,57.1c0,0,62.8-79.9,62.8-146.9
		c0,0,98.1,119.4,40.2,256"/>
	<path class="st0" d="M450.1,37.1c1.4-3.2,2.1-6.8,2.1-10.5c0-14.7-11.9-26.6-26.6-26.6s-26.6,11.9-26.6,26.6
		c0,10.7,6.3,19.9,15.5,24.2c-5.9,6.9-9.4,15.9-9.4,25.7c0,22,17.8,39.7,39.7,39.7s39.7-17.8,39.7-39.7
		C484.6,56.3,469.6,39.7,450.1,37.1L450.1,37.1z"/>
	<path class="st1" d="M454.8,115c-3.2,0.8-6.5,1.2-9.9,1.2c-22,0-39.7-17.8-39.7-39.8c0-9.8,3.6-18.8,9.4-25.7
		c-9.1-4.2-15.5-13.4-15.5-24.2C399.1,11.9,411,0,425.7,0c3.5,0,6.9,0.7,10,1.9C425.8,5.9,419,15.4,419,26.6
		c0,10.7,6.3,19.9,15.5,24.2c-5.9,6.9-9.4,15.9-9.4,25.7C425,95,437.6,110.5,454.8,115L454.8,115z"/>
	<circle class="st0" cx="44.5" cy="63.4" r="33.8"/>
	<path class="st1" d="M31.7,63.4c0-15,9.8-27.8,23.4-32.2c-3.3-1.1-6.8-1.7-10.5-1.7c-18.7,0-33.8,15.1-33.8,33.8
		s15.1,33.8,33.8,33.8c3.7,0,7.2-0.6,10.5-1.7C41.5,91.2,31.7,78.5,31.7,63.4z"/>
</g>
</svg>
