<?xml version="1.0" encoding="iso-8859-1"?>
<!-- Generator: Adobe Illustrator 19.0.0, SVG Export Plug-In . SVG Version: 6.00 Build 0)  -->
<svg version="1.1" id="Capa_1" xmlns="http://www.w3.org/2000/svg" xmlns:xlink="http://www.w3.org/1999/xlink" x="0px" y="0px"
	 viewBox="0 0 472.706 472.706" style="enable-background:new 0 0 472.706 472.706;" xml:space="preserve">
<polygon style="fill:#7A7869;" points="235.524,259.362 183.178,259.362 157.003,274.469 142.966,296.584 130.832,319.801 
	104.649,334.913 78.482,380.249 261.695,274.469 "/>
<polyline style="fill:#636154;" points="261.695,274.469 235.524,259.362 183.178,259.362 157.003,274.469 142.966,296.584 
	130.832,319.801 104.649,334.913 "/>
<rect x="7.013" y="308.743" transform="matrix(-0.866 -0.5 0.5 -0.866 -69.7869 651.1308)" style="fill:#999684;" width="90.661" height="52.345"/>
<polyline style="fill:#8E8B79;" points="78.482,380.249 104.649,334.913 26.14,289.581 "/>
<polygon style="fill:#AFAB95;" points="26.14,289.581 52.307,274.469 130.832,319.801 104.649,334.913 "/>
<polygon style="fill:#999684;" points="52.307,274.469 78.486,229.138 157.003,274.469 142.966,296.584 130.832,319.801 "/>
<polyline style="fill:#8E8B79;" points="78.486,229.138 157.003,274.469 142.966,296.584 130.832,319.801 "/>
<polygon style="fill:#C1BCA8;" points="78.486,229.138 104.649,214.026 183.178,259.362 157.003,274.469 "/>
<polyline style="fill:#AFAB95;" points="183.178,259.362 157.003,274.469 78.486,229.138 "/>
<polygon style="fill:#999684;" points="235.524,259.362 173.966,223.813 130.824,229.138 183.178,259.362 "/>
<polyline style="fill:#8E8B79;" points="183.178,259.362 235.524,259.362 173.966,223.813 "/>
<polygon style="fill:#7A7869;" points="411.077,150.483 420.061,150.483 424.554,153.078 426.961,156.875 429.048,160.861 
	433.538,163.452 438.032,171.234 406.587,153.078 "/>
<polyline style="fill:#636154;" points="406.587,153.078 411.077,150.483 420.061,150.483 424.554,153.078 426.961,156.875 
	429.048,160.861 433.538,163.452 "/>
<rect x="434.753" y="158.988" transform="matrix(0.866 -0.5 0.5 0.866 -22.4506 243.1745)" style="fill:#999684;" width="15.561" height="8.983"/>
<polyline style="fill:#8E8B79;" points="438.032,171.234 433.538,163.452 447.015,155.674 "/>
<polygon style="fill:#AFAB95;" points="447.015,155.674 442.526,153.078 429.048,160.861 433.538,163.452 "/>
<polygon style="fill:#999684;" points="442.526,153.078 438.028,145.3 424.554,153.078 426.961,156.875 429.048,160.861 "/>
<polyline style="fill:#8E8B79;" points="438.028,145.3 424.554,153.078 426.961,156.875 429.048,160.861 "/>
<polygon style="fill:#C1BCA8;" points="438.028,145.3 433.538,142.708 420.061,150.483 424.554,153.078 "/>
<polyline style="fill:#AFAB95;" points="420.061,150.483 424.554,153.078 438.028,145.3 "/>
<polygon style="fill:#999684;" points="411.077,150.483 421.644,144.382 429.048,145.3 420.061,150.483 "/>
<polyline style="fill:#8E8B79;" points="420.061,150.483 411.077,150.483 421.644,144.382 "/>
<polygon style="fill:#7A7869;" points="257.556,363.565 270.954,363.565 277.654,367.437 281.246,373.1 284.353,379.04 
	291.056,382.911 297.756,394.514 250.856,367.437 "/>
<polyline style="fill:#636154;" points="250.856,367.437 257.556,363.565 270.954,363.565 277.654,367.437 281.246,373.1 
	284.353,379.04 291.056,382.911 "/>
<rect x="292.846" y="376.219" transform="matrix(0.866 -0.5 0.5 0.866 -150.6724 203.5331)" style="fill:#999684;" width="23.213" height="13.398"/>
<polyline style="fill:#8E8B79;" points="297.756,394.514 291.056,382.911 311.158,371.304 "/>
<polygon style="fill:#AFAB95;" points="311.158,371.304 304.459,367.437 284.353,379.04 291.056,382.911 "/>
<polygon style="fill:#999684;" points="304.459,367.437 297.752,355.834 277.654,367.437 281.246,373.1 284.353,379.04 "/>
<polyline style="fill:#8E8B79;" points="297.752,355.834 277.654,367.437 281.246,373.1 284.353,379.04 "/>
<polygon style="fill:#C1BCA8;" points="297.752,355.834 291.056,351.963 270.954,363.565 277.654,367.437 "/>
<polyline style="fill:#AFAB95;" points="270.954,363.565 277.654,367.437 297.752,355.834 "/>
<polygon style="fill:#999684;" points="257.556,363.565 273.314,354.467 284.353,355.834 270.954,363.565 "/>
<polyline style="fill:#8E8B79;" points="270.954,363.565 257.556,363.565 273.314,354.467 "/>
<polygon style="fill:#C1BCA8;" points="221.472,320.928 241.29,332.369 280.934,309.482 247.914,305.658 241.286,309.723 
	224.953,312.464 "/>
<polyline style="fill:#AFAB95;" points="221.472,320.928 241.29,332.369 280.934,309.482 248.072,315.323 "/>
<polygon style="fill:#999684;" points="221.472,320.928 221.472,343.814 241.29,355.255 241.29,332.369 "/>
<polyline style="fill:#8E8B79;" points="241.29,355.255 241.29,332.369 221.472,320.928 "/>
<polygon style="fill:#7A7869;" points="241.29,355.255 280.934,332.369 280.934,309.482 241.29,332.369 "/>
<polyline style="fill:#636154;" points="280.934,309.482 241.29,332.369 241.29,355.255 "/>
<polygon style="fill:#C1BCA8;" points="153.442,362.868 166.656,370.501 193.083,355.243 171.071,352.687 166.656,355.401 
	155.762,357.224 "/>
<polyline style="fill:#AFAB95;" points="153.442,362.868 166.656,370.501 193.083,355.243 171.177,359.135 "/>
<polygon style="fill:#999684;" points="153.442,362.868 153.442,378.126 166.656,385.755 166.656,370.501 "/>
<polyline style="fill:#8E8B79;" points="166.656,385.755 166.656,370.501 153.442,362.868 "/>
<polygon style="fill:#7A7869;" points="166.656,385.755 193.083,370.501 193.083,355.243 166.656,370.501 "/>
<polyline style="fill:#636154;" points="193.083,355.243 166.656,370.501 166.656,385.755 "/>
<polygon style="fill:#C1BCA8;" points="348.881,319.663 335.671,327.292 309.24,312.038 331.256,309.482 335.671,312.196 
	346.557,314.023 "/>
<polyline style="fill:#AFAB95;" points="348.881,319.663 335.671,327.292 309.24,312.038 331.142,315.93 "/>
<polygon style="fill:#999684;" points="348.881,319.663 348.881,334.921 335.671,342.55 335.671,327.292 "/>
<polyline style="fill:#8E8B79;" points="335.671,342.55 335.671,327.292 348.881,319.663 "/>
<polygon style="fill:#7A7869;" points="335.671,342.55 309.24,327.292 309.24,312.038 335.671,327.292 "/>
<polyline style="fill:#636154;" points="309.24,312.038 335.671,327.292 335.671,342.55 "/>
<polygon style="fill:#999684;" points="277.929,249.051 391.55,314.65 391.55,259.59 375.32,230.307 375.32,211.564 
	359.085,183.452 342.756,211.564 326.625,220.938 "/>
<polyline style="fill:#8E8B79;" points="391.55,314.65 391.55,259.59 375.32,230.307 375.32,211.564 359.085,183.452 
	342.756,211.564 326.625,220.938 "/>
<polygon style="fill:#C1BCA8;" points="359.085,183.452 383.433,160.022 407.78,174.078 391.55,202.195 407.78,211.564 
	407.78,230.307 391.55,259.59 375.32,230.307 375.32,214.026 "/>
<polyline style="fill:#AFAB95;" points="383.433,160.022 407.78,174.078 391.55,202.195 407.78,211.564 407.78,230.307 
	391.55,259.59 375.32,230.307 "/>
<polygon style="fill:#7A7869;" points="407.78,174.078 424.007,202.195 439.985,205.708 456.476,220.938 468.578,246.668 
	472.706,267.79 391.55,314.65 391.55,259.59 407.78,230.307 407.78,211.564 391.55,202.195 "/>
<polyline style="fill:#636154;" points="391.55,314.65 391.55,259.59 407.78,230.307 407.78,211.564 391.55,202.195 407.78,174.078 
	424.007,202.195 439.985,205.708 "/>
<polygon style="fill:#999684;" points="431.943,379.173 384.811,406.38 384.811,383.545 391.55,371.399 391.55,363.62 
	398.281,351.963 405.055,363.62 411.746,367.512 "/>
<polyline style="fill:#8E8B79;" points="384.811,406.38 384.811,383.545 391.55,371.399 391.55,363.62 398.281,351.963 
	405.055,363.62 411.746,367.512 "/>
<polygon style="fill:#C1BCA8;" points="398.281,351.963 388.183,342.246 378.081,348.075 384.811,359.737 378.081,363.62 
	378.081,371.399 384.811,383.545 391.55,371.399 391.55,364.644 "/>
<polyline style="fill:#AFAB95;" points="388.183,342.246 378.081,348.075 384.811,359.737 378.081,363.62 378.081,371.399 
	384.811,383.545 391.55,371.399 "/>
<polygon style="fill:#7A7869;" points="378.081,348.075 371.35,359.737 364.729,361.194 357.884,367.512 352.866,378.185 
	351.153,386.948 384.811,406.38 384.811,383.545 378.081,371.399 378.081,363.62 384.811,359.737 "/>
<polyline style="fill:#636154;" points="384.811,406.38 384.811,383.545 378.081,371.399 378.081,363.62 384.811,359.737 
	378.081,348.075 371.35,359.737 364.729,361.194 "/>
<polygon style="fill:#999684;" points="242.999,225.412 113.156,150.443 144.597,114.131 178.074,112.957 194.308,103.584 
	226.769,103.584 227.281,159.423 "/>
<polyline style="fill:#8E8B79;" points="144.597,114.131 178.074,112.957 194.308,103.584 226.769,103.584 227.281,159.423 
	242.999,225.412 "/>
<polygon style="fill:#636154;" points="242.999,225.412 259.399,141.168 259.399,122.421 259.399,103.682 275.468,94.214 
	275.468,76.644 324.163,103.584 340.393,94.214 356.624,103.584 340.393,131.7 307.283,150.818 "/>
<polygon style="fill:#C1BCA8;" points="194.308,103.584 210.538,94.214 232.361,88.074 243.003,75.471 259.623,66.326 
	275.468,76.644 275.468,94.214 259.399,103.682 259.399,141.168 242.999,225.412 226.312,156.883 226.115,109.637 "/>
<polyline style="fill:#AFAB95;" points="259.623,66.326 275.468,76.644 275.468,94.214 259.399,103.682 259.399,141.168 
	242.999,225.412 226.312,156.883 "/>
<polygon style="fill:#7A7869;" points="242.66,225.605 389.25,141.168 356.624,103.584 340.393,131.7 307.283,150.818 "/>
<polygon style="fill:#999684;" points="80.341,202.069 109.67,185.129 102.569,176.926 95.004,176.662 91.341,174.547 
	84.003,174.547 83.889,187.158 "/>
<polyline style="fill:#8E8B79;" points="102.569,176.926 95.004,176.662 91.341,174.547 84.003,174.547 83.889,187.158 
	80.341,202.069 "/>
<polygon style="fill:#636154;" points="80.341,202.069 76.635,183.038 76.635,178.8 76.635,174.566 73.003,172.432 73.003,168.462 
	62.003,174.547 58.34,172.432 54.67,174.547 58.34,180.896 65.816,185.216 "/>
<polygon style="fill:#C1BCA8;" points="91.341,174.547 87.67,172.432 82.743,171.041 80.341,168.194 76.583,166.13 73.003,168.462 
	73.003,172.432 76.635,174.566 76.635,183.038 80.341,202.069 84.114,186.587 84.149,175.909 "/>
<polyline style="fill:#AFAB95;" points="76.583,166.13 73.003,168.462 73.003,172.432 76.635,174.566 76.635,183.038 
	80.341,202.069 84.114,186.587 "/>
<polygon style="fill:#7A7869;" points="80.412,202.112 47.297,183.038 54.67,174.547 58.34,180.896 65.816,185.216 "/>
<g>
</g>
<g>
</g>
<g>
</g>
<g>
</g>
<g>
</g>
<g>
</g>
<g>
</g>
<g>
</g>
<g>
</g>
<g>
</g>
<g>
</g>
<g>
</g>
<g>
</g>
<g>
</g>
<g>
</g>
</svg>
