<svg id="Capa_1" enable-background="new 0 0 512 512" height="512" viewBox="0 0 512 512" width="512" xmlns="http://www.w3.org/2000/svg"><path d="m208.587 54.407-201.17 348.437c-21.073 36.499 5.268 82.122 47.413 82.122h402.34c42.145 0 68.486-45.624 47.413-82.122l-201.17-348.437c-21.072-36.498-73.754-36.498-94.826 0z" fill="#da4a54"/><path d="m54.83 443.76c-6.802 0-10.267-4.242-11.727-6.771s-3.401-7.65 0-13.542l201.17-348.436c3.401-5.891 8.807-6.771 11.727-6.771s8.326.88 11.727 6.771l201.17 348.436c3.401 5.891 1.46 11.013 0 13.541-1.46 2.529-4.925 6.771-11.727 6.771h-402.34z" fill="#f6e266"/><g fill="#e28424"><path d="m377.346 264.876-150.927 86.996 71.941-2.044-60.636 40.07 219.364 13.096"/><path d="m309.913 148.079-119.465 160.628 83.753-52.339-58.06 69.81 147.886-84.37"/><path d="m273.586 85.158-95.471 200.939 118.736-160.642"/></g><path d="m439.37 372.305h-98.873l78.277-35.672" fill="#f6e266"/><path d="m219.356 384.053c-8.684 17.317-26.599 29.206-47.296 29.206-29.195 0-52.869-23.674-52.869-52.869 0-27.65 21.222-50.345 48.254-52.673l-2.679 40.053 40.074 2.05-10.281 25.693z" fill="#f9f6f9"/><path d="m181.827 412.352c-3.163.598-6.428.906-9.766.906-29.195 0-52.869-23.674-52.869-52.869 0-27.65 21.222-50.345 48.254-52.673l-.392 5.821c-16.843 8.839-28.33 26.507-28.33 46.853 0 25.857 18.574 47.388 43.103 51.962z" fill="#efe7e4"/></svg>