<?xml version="1.0" encoding="utf-8"?>
<!-- Generator: Adobe Illustrator 24.3.0, SVG Export Plug-In . SVG Version: 6.00 Build 0)  -->
<svg version="1.1" id="Capa_1" xmlns="http://www.w3.org/2000/svg" xmlns:xlink="http://www.w3.org/1999/xlink" x="0px" y="0px"
	 viewBox="0 0 512 398.2" style="enable-background:new 0 0 512 398.2;" xml:space="preserve">
<style type="text/css">
	.st0{fill:#747878;}
	.st1{fill:#677070;}
</style>
<g>
	<path class="st0" d="M372.6,378.7c12.1,12.1,28.7,19.5,47.1,19.5c36.8,0,66.6-29.8,66.6-66.6c0-13.2-3.9-25.5-10.5-35.9
		c21-6.5,36.2-26.1,36.2-49.2c0-19.6-11-36.7-27.1-45.4c2.3-6.3,3.6-13.2,3.6-20.3c0-32.6-26.4-59.1-59.1-59.1
		c-5.1,0-10,0.6-14.7,1.8c-1.3-21.2-18.9-38.1-40.5-38.1c0,0-0.1,0-0.1,0c0.1-1.2,0.1-2.4,0.1-3.7c0-32.6-26.4-59.1-59.1-59.1
		c-19.2,0-36.3,9.2-47.1,23.5C253.8,18.8,225.1,0,192,0c-47.3,0-85.6,38.3-85.6,85.6c0,0.4,0,0.8,0,1.2c-3.2-0.8-6.6-1.2-10-1.2
		c-22.4,0-40.5,18.1-40.5,40.5c0,5.9,1.3,11.6,3.6,16.6c-25.7,6.4-44.7,29.6-44.7,57.3c0,16.6,6.9,31.6,17.9,42.3
		C13.3,252.1,0,272.1,0,295.3c0,32.6,26.4,59.1,59.1,59.1c1.3,0,2.7-0.1,4-0.1c3.6,24.9,25,44,50.9,44c14.2,0,27.1-5.8,36.4-15.1"/>
	<path class="st1" d="M192,0c14.2,0,27.7,3.5,39.5,9.6c-27.4,14.3-46.1,42.9-46.1,76c0,0.4,0,0.8,0,1.2c-3.2-0.8-6.6-1.2-10-1.2
		c-22.4,0-40.5,18.1-40.5,40.5c0,5.9,1.3,11.6,3.6,16.6c-25.7,6.4-44.7,29.6-44.7,57.3c0,16.6,6.9,31.6,17.9,42.3
		C92.3,252.1,79,272.1,79,295.2c0,32.6,26.4,59.1,59.1,59.1c1.3,0,2.7-0.1,4-0.1c1.6,11.2,6.8,21.2,14.4,28.8l-6.1,0.1
		c-9.3,9.3-22.2,15.1-36.4,15.1c-25.9,0-47.3-19.1-50.9-44c-1.3,0.1-2.6,0.1-4,0.1C26.4,354.3,0,327.9,0,295.2
		c0-23.1,13.3-43.1,32.7-52.8c-11-10.7-17.9-25.7-17.9-42.3c0-27.6,19-50.8,44.7-57.3c-2.3-5.1-3.6-10.7-3.6-16.6
		c0-22.4,18.1-40.5,40.5-40.5c3.5,0,6.8,0.4,10,1.2c0-0.4,0-0.8,0-1.2C106.4,38.3,144.7,0,192,0L192,0z"/>
</g>
</svg>
