<?xml version="1.0" encoding="utf-8"?>
<!-- Generator: Adobe Illustrator 24.3.0, SVG Export Plug-In . SVG Version: 6.00 Build 0)  -->
<svg version="1.1" id="Laag_1" xmlns="http://www.w3.org/2000/svg" xmlns:xlink="http://www.w3.org/1999/xlink" x="0px" y="0px"
	 viewBox="0 0 402.1 364" style="enable-background:new 0 0 402.1 364;" xml:space="preserve">
<style type="text/css">
	.st0{fill-rule:evenodd;clip-rule:evenodd;fill:#B46D49;}
	.st1{fill-rule:evenodd;clip-rule:evenodd;fill:#A35F3F;}
	.st2{fill-rule:evenodd;clip-rule:evenodd;fill:#C68659;}
	.st3{fill-rule:evenodd;clip-rule:evenodd;fill:#924E38;}
</style>
<g id="Layer_1">
	<path class="st0" d="M236.2,64.8l72.3-36.2l71,53.5L398.9,216l-106.3,55.8L236.2,64.8z"/>
	<path class="st1" d="M220.2,277.6l72.5-5.8l-56.4-207l-98.1-28.3L107.8,87l54.3,29l35.1,77.3L220.2,277.6z"/>
	<path class="st2" d="M107.8,87l54.4,29l35.1,77.3l22.9,84.3l-99.8,9.1l-6.2-99.8l11.9-36.4L107.8,87z"/>
	<path class="st3" d="M107.8,87l18.1,63.4l-11.9,36.4l6.2,99.8L13.5,274.3L0,237.1l15-87.3L107.8,87z"/>
	<path class="st2" d="M138.2,36.5L192.4,0l116.2,28.6l-72.3,36.2L138.2,36.5z"/>
</g>
<g id="Layer_1_1_">
	<path class="st2" d="M351,295l3.5,10l-1.8,27.5l-29.4-2.5l6.7-23.2l10.3-21.3l16-8L351,295z"/>
	<path class="st3" d="M383.7,294.9l4.4,24l-4,10.3l-31.5,3.4l1.8-27.5l-3.5-10l5.3-17.5L383.7,294.9z"/>
</g>
<g id="Layer_1_2_">
	<path class="st2" d="M246.6,326.9l2,5.7l-1.1,15.7l-16.8-1.4l3.8-13.3l5.9-12.2l9.1-4.6L246.6,326.9z"/>
	<path class="st3" d="M265.2,326.8l2.5,13.7l-2.3,5.9l-18,1.9l1.1-15.7l-2-5.7l3-10L265.2,326.8z"/>
</g>
<g id="Layer_1_3_">
	<path class="st2" d="M161.9,331.9l3,8.6l-1.6,23.6l-25.2-2.1l5.8-19.9l8.9-18.3l13.7-6.8L161.9,331.9z"/>
	<path class="st3" d="M190,331.7l3.8,20.6l-3.4,8.8l-27,2.9l1.6-23.6l-3-8.6l4.6-15L190,331.7z"/>
</g>
<g id="Layer_1_4_">
	<path class="st2" d="M64.2,315.3l3.8,11l-2,30.1l-32.2-2.7l7.4-25.4l11.3-23.3l17.5-8.7L64.2,315.3z"/>
	<path class="st3" d="M100,315.1l4.8,26.3l-4.3,11.2L66,356.3l2-30.1l-3.8-11l5.8-19.1L100,315.1z"/>
</g>
</svg>
