<?xml version="1.0" encoding="utf-8"?>
<!-- Generator: Adobe Illustrator 24.3.0, SVG Export Plug-In . SVG Version: 6.00 Build 0)  -->
<svg version="1.1" id="Laag_1" xmlns="http://www.w3.org/2000/svg" xmlns:xlink="http://www.w3.org/1999/xlink" x="0px" y="0px"
	 viewBox="0 0 360.8 334.9" style="enable-background:new 0 0 360.8 334.9;" xml:space="preserve">
<style type="text/css">
	.st0{fill-rule:evenodd;clip-rule:evenodd;fill:#B46D49;}
	.st1{fill-rule:evenodd;clip-rule:evenodd;fill:#A35F3F;}
	.st2{fill-rule:evenodd;clip-rule:evenodd;fill:#C68659;}
	.st3{fill-rule:evenodd;clip-rule:evenodd;fill:#924E38;}
</style>
<g id="Layer_1">
	<path class="st0" d="M204,52.2L262.2,23l57.2,43.1L335,174l-85.6,45L204,52.2z"/>
	<path class="st1" d="M191,223.6l58.4-4.7L204,52.2l-79-22.8l-24.4,40.7l43.8,23.3l28.3,62.3L191,223.6z"/>
	<path class="st2" d="M100.5,70.1l43.8,23.3l28.3,62.3l18.4,67.9l-80.4,7.3l-5-80.4l9.6-29.3L100.5,70.1z"/>
	<path class="st3" d="M100.5,70.1l14.6,51.1l-9.6,29.3l5,80.4L24.5,221l-10.9-30l12.1-70.3L100.5,70.1z"/>
	<path class="st2" d="M124.9,29.4L168.6,0l93.6,23L204,52.2L124.9,29.4z"/>
</g>
<g id="Layer_1_1_">
	<path class="st2" d="M308.6,282l4.9,14.1l-2.6,38.7l-41.4-3.5l9.5-32.7l14.6-30l22.6-11.2L308.6,282z"/>
	<path class="st3" d="M354.6,281.8l6.2,33.8l-5.6,14.4l-44.3,4.8l2.6-38.7l-4.9-14.1l7.5-24.6L354.6,281.8z"/>
</g>
<g id="Layer_1_2_">
	<path class="st2" d="M193.4,243.3l2,5.7l-1.1,15.7l-16.8-1.4l3.8-13.3l5.9-12.2l9.1-4.6L193.4,243.3z"/>
	<path class="st3" d="M212.1,243.2l2.5,13.7l-2.3,5.9l-18,1.9l1.1-15.7l-2-5.7l3-10L212.1,243.2z"/>
</g>
<g id="Layer_1_3_">
	<path class="st2" d="M120.9,264l3,8.6l-1.6,23.6L97.1,294l5.8-19.9l8.9-18.3l13.7-6.8L120.9,264z"/>
	<path class="st3" d="M149,263.9l3.8,20.6l-3.4,8.8l-27,2.9l1.6-23.6l-3-8.6l4.6-15L149,263.9z"/>
</g>
<g id="Layer_1_4_">
	<path class="st2" d="M30.4,285.2l3.8,11l-2,30.1L0,323.5l7.4-25.4l11.3-23.3l17.5-8.7L30.4,285.2z"/>
	<path class="st3" d="M66.1,285l4.8,26.3l-4.3,11.2l-34.4,3.7l2-30.1l-3.8-11l5.8-19.1L66.1,285z"/>
</g>
<g id="Layer_1_5_">
	<path class="st2" d="M230.5,265.9l2,5.7l-1.1,15.7l-16.8-1.4l3.8-13.3l5.9-12.2l9.1-4.6L230.5,265.9z"/>
	<path class="st3" d="M249.2,265.8l2.5,13.7l-2.3,5.9l-18,1.9l1.1-15.7l-2-5.7l3-10L249.2,265.8z"/>
</g>
</svg>
