<?xml version="1.0" standalone="no"?>
<!DOCTYPE svg PUBLIC "-//W3C//DTD SVG 20010904//EN"
 "http://www.w3.org/TR/2001/REC-SVG-20010904/DTD/svg10.dtd">
<svg version="1.0" xmlns="http://www.w3.org/2000/svg"
 width="426.000000pt" height="586.000000pt" viewBox="0 0 426.000000 586.000000"
 preserveAspectRatio="xMidYMid meet">

<g transform="translate(0.000000,586.000000) scale(0.100000,-0.100000)"
fill="#000000" stroke="none">
<path d="M2830 5785 c-186 -51 -386 -142 -535 -241 -262 -175 -505 -483 -614
-777 -73 -195 -85 -265 -85 -502 -1 -230 8 -293 64 -460 35 -101 37 -126 12
-148 -28 -26 -62 -20 -122 20 -119 80 -214 199 -282 356 -118 272 -111 655 17
925 25 52 45 103 45 113 0 18 -27 39 -51 39 -16 0 -188 -170 -263 -260 -248
-299 -395 -601 -472 -965 -22 -109 -28 -163 -32 -333 -3 -126 0 -245 8 -315
15 -140 72 -364 144 -572 66 -188 116 -367 116 -417 0 -75 -68 -88 -153 -30
-201 139 -356 461 -375 778 l-7 119 -22 -42 c-37 -69 -111 -303 -138 -435 -49
-245 -57 -573 -20 -817 42 -274 163 -581 321 -818 307 -461 741 -760 1281
-882 186 -42 326 -55 527 -48 422 14 813 153 1154 410 185 139 392 358 510
542 145 224 268 556 309 833 21 145 23 493 4 632 -39 279 -146 580 -293 823
-52 87 -71 103 -102 91 -14 -5 -16 -28 -16 -185 0 -198 -12 -278 -61 -412 -15
-44 -42 -101 -59 -127 l-31 -48 31 -62 c50 -98 88 -211 112 -332 31 -157 31
-405 -1 -558 -67 -317 -213 -576 -459 -811 -139 -133 -266 -225 -417 -299
-552 -273 -1201 -231 -1720 112 -194 128 -327 261 -465 465 -87 129 -129 217
-180 374 -53 162 -70 264 -70 419 0 162 3 165 98 122 98 -44 152 -52 363 -52
207 0 233 -6 260 -58 19 -34 17 -94 -5 -126 -31 -48 -68 -56 -261 -56 l-175 0
6 -28 c55 -233 178 -465 336 -636 l73 -79 104 106 c121 124 172 155 225 137
68 -22 109 -94 87 -152 -5 -13 -53 -70 -106 -126 -56 -59 -95 -108 -92 -115 6
-16 131 -83 227 -121 105 -43 392 -107 407 -92 3 2 7 86 9 185 4 197 9 218 65
247 36 18 63 18 103 -1 56 -27 61 -42 66 -245 l5 -185 50 3 c79 6 284 59 386
101 93 38 199 91 199 101 0 3 -39 46 -86 95 -47 50 -94 104 -105 120 -40 63
-11 153 57 181 59 25 94 6 226 -124 135 -132 115 -131 222 -12 151 168 274
406 311 603 l7 37 -188 0 c-205 1 -221 4 -255 56 -36 55 -15 138 43 170 16 10
78 13 216 14 l192 0 0 28 c0 55 -48 259 -79 336 -17 43 -53 117 -78 164 l-47
85 38 69 c72 132 105 293 113 553 6 215 -3 308 -47 486 -56 222 -124 369 -299
649 -111 176 -165 274 -207 373 -16 38 -37 73 -47 78 -44 24 -93 -92 -118
-281 -19 -137 -6 -358 30 -544 17 -88 29 -168 25 -178 -3 -10 -16 -25 -29 -34
-21 -14 -27 -14 -52 -1 -41 22 -117 122 -173 230 -100 192 -147 412 -137 647
10 224 48 381 138 563 74 151 141 240 291 390 76 76 138 142 138 147 0 9 -40
41 -50 39 -3 0 -43 -11 -90 -24z m-349 -2389 c286 -66 563 -200 766 -372 90
-77 118 -178 70 -256 -12 -20 -132 -152 -267 -294 -135 -141 -281 -296 -325
-344 -247 -270 -525 -554 -557 -571 -44 -23 -124 -25 -172 -5 -19 8 -85 63
-148 123 -62 59 -202 191 -311 293 -211 197 -227 219 -213 293 20 105 145 153
232 88 21 -16 122 -106 223 -200 102 -94 187 -170 190 -169 4 2 217 215 474
474 l469 472 -34 25 c-38 29 -147 85 -233 120 -107 44 -234 76 -362 92 l-53 7
0 -202 c0 -160 -3 -209 -15 -234 -38 -79 -153 -89 -202 -17 -16 22 -18 56 -21
246 -3 195 -5 222 -21 240 -61 67 -46 157 34 207 28 18 43 19 200 14 129 -4
196 -11 276 -30z"/>
</g>
</svg>
