<?xml version="1.0" encoding="iso-8859-1"?>
<!-- Generator: Adobe Illustrator 19.0.0, SVG Export Plug-In . SVG Version: 6.00 Build 0)  -->
<svg version="1.1" id="Capa_1" xmlns="http://www.w3.org/2000/svg" xmlns:xlink="http://www.w3.org/1999/xlink" x="0px" y="0px"
	 viewBox="0 0 509.953 509.953" style="enable-background:new 0 0 509.953 509.953;" xml:space="preserve">
<path style="fill:#E14B4B;" d="M456.693,307.136c4.736,111.344-90.336,201.792-201.792,201.792S53.125,418.576,53.125,307.136
	c0,0-1.952-96.448,22.96-139.856c0,0,7.12,45.552,40.576,62.64s42.704,30.608,42.704,30.608S88.901,123.856,248.341,0
	c0,0-15.664,63.344,17.792,88.256s45.552,67.616,42,98.224c0,0,33.456-24.208,24.912-81.136c0,0,46.272,28.464,44.128,172.96
	c0,0,51.952-3.552,34.16-91.104C411.333,187.2,452.965,219.232,456.693,307.136z"/>
<path style="fill:#FFD83B;" d="M148.997,400c0,0,8.4,113.728,115.664,109.856c0,0,90.464-1.296,96.288-98.864
	c0,0-52,40.208-51.504-23.904c0.08-11.408,3.264-22.528,8.336-32.752c5.808-11.744,12.736-32.688,8.288-60.96
	c0,0-12.768,55.584-42.656,28.432c-17.872-16.24-24.864-30.416-17.44-94.992c0,0-21.696,18.848-27.52,62.448
	c-1.104,8.256-6.912,15.488-15.04,17.296c-8,1.776-17.856-1.568-25.28-22.032c0,0-16.8,24.448,9.04,83.856
	c0,0,7.104,28.384-16.16,40.016S148.997,400,148.997,400z"/>
<g>
</g>
<g>
</g>
<g>
</g>
<g>
</g>
<g>
</g>
<g>
</g>
<g>
</g>
<g>
</g>
<g>
</g>
<g>
</g>
<g>
</g>
<g>
</g>
<g>
</g>
<g>
</g>
<g>
</g>
</svg>
