<?xml version="1.0" standalone="no"?>
<!DOCTYPE svg PUBLIC "-//W3C//DTD SVG 20010904//EN"
 "http://www.w3.org/TR/2001/REC-SVG-20010904/DTD/svg10.dtd">
<svg version="1.0" xmlns="http://www.w3.org/2000/svg"
 width="474.000000pt" height="527.000000pt" viewBox="0 0 474.000000 527.000000"
 preserveAspectRatio="xMidYMid meet">

<g transform="translate(0.000000,527.000000) scale(0.100000,-0.100000)"
fill="#000000" stroke="none">
<path d="M2210 5115 c-187 -108 -374 -193 -570 -260 -388 -132 -691 -175
-1245 -175 -250 0 -264 -1 -289 -21 l-26 -20 0 -562 c1 -952 22 -1294 105
-1687 148 -705 519 -1296 1095 -1747 220 -172 571 -370 955 -539 146 -64 163
-64 330 11 323 143 640 319 835 463 481 355 792 739 1008 1247 157 368 229
715 267 1284 11 163 15 402 15 878 0 640 0 653 -20 673 -19 19 -33 20 -287 20
-147 0 -330 5 -407 11 -531 40 -958 171 -1440 443 -74 42 -140 76 -148 76 -7
0 -87 -43 -178 -95z m243 -404 c165 -93 505 -231 727 -296 289 -83 706 -145
991 -145 56 0 80 -4 89 -15 19 -22 14 -1150 -5 -1370 -89 -1000 -525 -1689
-1379 -2176 -159 -91 -409 -201 -467 -207 -60 -6 -118 14 -294 97 -421 201
-757 448 -994 731 -209 249 -336 473 -452 792 -142 396 -178 732 -179 1666 0
525 -11 482 127 482 549 0 1130 144 1648 408 66 33 123 61 128 61 4 1 31 -12
60 -28z"/>
<path d="M2814 4238 c-54 -107 -56 -112 -38 -125 25 -19 95 -55 99 -51 1 2 28
54 59 115 l56 113 -59 30 -60 30 -57 -112z"/>
<path d="M1929 4238 c-29 -51 -67 -116 -85 -143 l-32 -50 49 -53 48 -52 120 0
121 0 51 74 c29 41 60 87 71 104 l18 29 -147 89 c-81 49 -151 90 -154 92 -4 2
-31 -39 -60 -90z"/>
<path d="M1448 4032 c5 -128 -12 -212 -63 -314 -54 -107 -156 -248 -180 -248
-6 0 -9 19 -7 47 5 64 -21 181 -54 251 l-27 57 -9 -73 c-5 -40 -20 -110 -34
-155 -79 -262 -88 -309 -88 -422 -1 -78 5 -127 17 -169 10 -32 16 -61 12 -64
-7 -8 -86 70 -133 131 -20 26 -40 47 -44 47 -12 0 -37 -97 -50 -192 -23 -171
21 -376 112 -529 23 -39 74 -105 113 -145 155 -164 339 -246 551 -245 366 1
627 205 723 566 l27 100 0 407 c1 225 -1 408 -4 408 -12 0 -82 -48 -160 -110
-81 -64 -177 -130 -190 -130 -3 0 -4 39 -2 88 7 154 -33 286 -130 434 -89 136
-256 300 -358 353 l-26 14 4 -107z m76 -634 c-4 -13 -7 -57 -7 -98 1 -133 45
-222 190 -383 40 -45 86 -101 101 -124 15 -24 30 -43 33 -43 17 0 32 97 26
178 l-6 87 30 -35 c47 -54 116 -206 133 -292 37 -182 4 -336 -97 -445 -37 -40
-120 -93 -146 -93 -6 0 3 19 19 43 32 44 53 128 41 159 -6 16 -11 13 -39 -26
-22 -30 -50 -54 -87 -72 -48 -23 -64 -26 -123 -22 -115 9 -186 56 -255 171
-19 32 -37 55 -40 50 -27 -43 -12 -154 29 -216 14 -22 23 -41 20 -44 -9 -9
-93 56 -125 96 -17 21 -46 70 -63 108 -29 60 -33 81 -36 170 -5 134 -2 144 41
106 44 -38 95 -69 131 -77 25 -6 28 -5 21 11 -76 184 -47 382 96 652 54 100
95 161 111 161 5 0 6 -10 2 -22z"/>
<path d="M2480 2647 c0 -790 3 -1437 8 -1439 4 -2 190 -2 415 0 l407 3 115
111 115 110 0 1047 0 1046 -92 47 c-51 26 -205 106 -343 178 -137 72 -308 162
-380 199 -71 37 -156 83 -187 100 l-58 33 0 -1435z m290 936 l70 -36 0 -194
c0 -125 -4 -193 -10 -193 -6 0 -42 16 -80 35 l-70 35 0 83 c0 98 11 307 17
307 2 0 35 -16 73 -37z m270 -128 l70 -35 0 -195 c0 -107 -2 -195 -4 -195 -2
0 -38 16 -80 35 l-76 34 0 189 c0 167 3 202 17 202 2 0 35 -16 73 -35z m265
-127 l65 -32 0 -198 0 -198 -75 37 -75 37 0 193 c0 120 4 193 10 193 5 0 39
-14 75 -32z m-532 -478 l67 -34 0 -193 c0 -125 -4 -193 -10 -193 -6 0 -42 16
-80 35 l-70 35 0 188 c0 173 3 208 19 200 3 -2 36 -19 74 -38z m269 -121 l68
-32 0 -198 0 -198 -67 31 c-38 16 -74 35 -80 40 -21 17 -15 388 5 388 3 0 36
-14 74 -31z m266 -120 l62 -31 0 -198 0 -199 -46 20 c-26 10 -60 27 -75 36
l-29 17 0 193 c0 155 3 193 13 193 8 0 42 -14 75 -31z m-534 -489 l66 -29 0
-201 0 -200 -32 14 c-18 7 -54 24 -80 37 l-48 23 0 193 c0 159 2 193 14 193 8
0 44 -13 80 -30z m269 -114 l67 -29 0 -199 0 -199 -22 7 c-13 4 -48 19 -78 33
l-55 26 -3 175 c-3 172 1 225 16 218 5 -2 38 -16 75 -32z m261 -116 l66 -29 0
-200 0 -201 -75 37 -75 37 0 193 c0 109 4 193 9 193 5 0 39 -13 75 -30z"/>
<path d="M3200 3930 l0 -70 195 0 195 0 0 70 0 70 -195 0 -195 0 0 -70z"/>
<path d="M2280 3918 c-76 -112 -68 -108 -187 -108 -57 0 -103 -3 -101 -7 2 -5
17 -35 35 -69 17 -33 39 -87 48 -120 9 -32 18 -65 21 -72 3 -10 13 -6 36 12
18 13 68 41 111 61 l77 37 0 159 c0 87 -1 159 -2 159 -2 0 -19 -24 -38 -52z"/>
<path d="M3768 3499 l-68 -51 47 -59 c25 -32 48 -59 51 -59 2 0 33 21 68 47
l63 46 -30 41 c-16 23 -37 51 -47 63 l-17 22 -67 -50z"/>
<path d="M2285 2200 c-16 -23 -67 -78 -115 -123 l-86 -82 46 -109 45 -110 73
-39 72 -39 0 271 c0 149 -2 271 -4 271 -2 0 -16 -18 -31 -40z"/>
<path d="M1910 1914 c-103 -44 -194 -59 -345 -58 -132 1 -222 15 -296 48 -15
6 -17 -17 -22 -231 l-5 -238 111 -112 112 -113 162 0 c154 0 163 1 163 19 0
20 -16 150 -26 208 l-5 32 -157 3 -157 3 -3 58 -3 57 174 0 174 0 64 41 c138
89 199 133 199 146 0 17 -71 163 -79 162 -3 -1 -31 -12 -61 -25z"/>
<path d="M1993 1579 c-118 -78 -121 -81 -117 -112 17 -134 35 -250 38 -256 2
-3 95 -5 205 -3 l201 3 -2 171 -3 172 -90 53 c-49 29 -94 53 -100 53 -5 0 -65
-36 -132 -81z"/>
<path d="M1701 1021 c87 -68 355 -218 558 -311 l134 -62 221 110 c206 103 344
182 440 252 l40 30 -708 0 c-694 0 -708 0 -685 -19z"/>
</g>
</svg>
