<svg id="Layer_1" enable-background="new 0 0 50 50" height="512" viewBox="0 0 50 50" width="512" xmlns="http://www.w3.org/2000/svg"><g><g enable-background="new"><g><path d="m46.5807037 37.3569489-32.9135999-19.1272984 2.416501-1.3950996 32.913599 19.1271991z" fill="#5b5e71"/></g><g><path d="m46.4032021 37.373951-32.9135981-19.1272011c.0454998.0263996.1084003.0228004.1774998-.0170994l32.9136009 19.1272984c-.0691004.0399017-.1320009.0435028-.1775026.0170021z" fill="#5b5e71"/></g><g><path d="m45.2132034 38.14645-32.9134988-19.1273002c.1388998-.0802002.2493992-.2733002.2488995-.4312l32.9135999 19.1272983c.0004005.1579018-.1100006.3510017-.2490006.4312019z" fill="#474b59"/></g><g><path d="m42.7983093 39.5407486-32.9136047-19.1272984 2.415-1.3943004 32.9134988 19.1273002z" fill="#474b59"/></g><g><path d="m42.8011017 40.5362511-32.9134979-19.1272011-.0028992-.9955998 32.9136047 19.1272984z" fill="#525566"/></g><g><path d="m45.462204 37.7152481-32.9136-19.1272983-.0135002-4.7533999 32.9136 19.1272993z" fill="#474b59"/></g><g><path d="m12.4626045 13.6736498 32.9135971 19.1273003c.0447006.026001.0723.081501.0725021.1609001l-32.9135999-19.1273003c-.0001993-.0792999-.0276995-.1349001-.0724993-.1609001z" fill="#474b59"/></g><g><path d="m48.9793091 29.6369495.0027924.9974003-2.4165001 1.3950996c-.1373978.0793991-.2493973.2715988-.2488976.4312019l.013401 4.7534981c.0004997.1579018.1132965.2220993.2505989.1427994l2.4165001-1.3951988.0028.9956017-6.1989021 3.5788994-.0027924-.9955025 2.4148941-1.3942986c.1389999-.0802002.2494011-.2733002.2490005-.4312019l-.0135002-4.7533989c-.0003967-.1596985-.111599-.2230988-.2505989-.1427994l-2.4149017 1.3941994-.0028-.9972992z" fill="#3f434f"/></g><g><path d="m42.7832031 34.2132492-32.913599-19.1272993-.0028-.9973002 32.913599 19.1273003z" fill="#525566"/></g><g><path d="m42.7804031 33.21595-32.913599-19.1273003 6.1989002-3.5788993 32.9136048 19.1271991z" fill="#5b5e71"/></g></g><g enable-background="new"><g><path d="m37.7140045 42.4761505-32.9136004-19.1272011 2.4165001-1.3951988 32.9136004 19.1273003z" fill="#5b5e71"/></g><g><path d="m37.5365028 42.4932518-32.9135985-19.1273022c.0454998.0263996.1084046.0228996.1774998-.0170002l32.9136009 19.1272011c-.0692029.0398979-.1321034.043499-.1775022.0171013z" fill="#5b5e71"/></g><g><path d="m36.3465042 43.2656517-32.9136-19.1272011c.1390002-.0802002.2494047-.2734013.2490001-.4312l32.9136009 19.1271992c.0004001.1579017-.1101002.3510017-.249001.4312019z" fill="#474b59"/></g><g><path d="m33.9316025 44.6599503-32.9135981-19.1273003 2.4148998-1.3941994 32.9136 19.1272011z" fill="#474b59"/></g><g><path d="m33.9344025 45.6555481-32.9135981-19.1272984-.0028-.9955997 32.9135981 19.1273003z" fill="#525566"/></g><g><path d="m36.5955048 42.8344498-32.9136005-19.1271992-.0135-4.7535 32.9136002 19.1273003z" fill="#474b59"/></g><g><path d="m3.5959044 18.7928505 32.9135971 19.1273003c.0447006.026001.0723.0816002.0725021.1609001l-32.9135993-19.1273003c-.0002-.0792999-.0278-.134901-.0724999-.1609001z" fill="#474b59"/></g><g><path d="m40.1125031 34.7562485.0028992.997303-2.4165001 1.3951988c-.1373978.0792999-.2493973.2714996-.2490005.4311981l.0135002 4.7534027c.0004005.1578979.1132011.2220993.2506027.1427994l2.4165001-1.3950996.0028038.9954987-6.1989059 3.5789986-.0028-.9955978 2.4149017-1.3942986c.1389008-.0802002.2494011-.2733002.2490005-.4312019l-.0135002-4.7533989c-.0004997-.1597023-.1116943-.2229996-.2506027-.1427994l-2.4148979 1.3941994-.0028992-.9972992z" fill="#3f434f"/></g><g><path d="m33.9165039 39.3324509-32.9135995-19.1272011-.0029-.9974003 32.9136003 19.1273022z" fill="#525566"/></g><g><path d="m33.9136047 38.3351517-32.9136003-19.1273022 6.1989998-3.5788994 32.9134989 19.1272984z" fill="#5b5e71"/></g></g><g enable-background="new"><g><path d="m42.1205025 31.1917496-32.9135981-19.1272993 2.4165001-1.3952008 32.9135981 19.1273013z" fill="#5b5e71"/></g><g><path d="m41.9430046 31.2087498-32.9136-19.1272993c.0454998.0264997.1083994.0228996.1774998-.0170002l32.9135971 19.1273003c-.0690985.0398988-.131999.0434999-.1774969.0169992z" fill="#5b5e71"/></g><g><path d="m40.7530022 31.9812508-32.9135981-19.1273013c.1389999-.0801992.2494001-.2732992.2490005-.4311991l32.9135971 19.1273003c.0004016.1578999-.1100988.3509999-.2489995.4312001z" fill="#474b59"/></g><g><path d="m38.3381042 33.3755493-32.9135999-19.1272993 2.4148998-1.3943005 32.9135981 19.1273013z" fill="#474b59"/></g><g><path d="m38.3409042 34.3710518-32.9135956-19.1273022-.0028043-.9954996 32.9135999 19.1272993z" fill="#525566"/></g><g><path d="m41.0020027 31.5500507-32.913598-19.1273002-.0135003-4.7534004 32.9135981 19.1272007z" fill="#474b59"/></g><g><path d="m8.0024042 7.50845 32.9136009 19.1273003c.0447006.026001.0723038.081501.0724983.1608009l-32.913599-19.1272011c-.0002002-.0794-.0278005-.1349-.0725002-.1609001z" fill="#474b59"/></g><g><path d="m44.519104 23.4717503.0028.9974003-2.4165001 1.3950996c-.1374016.0792999-.2494011.2716007-.2490005.4312l.0135002 4.7535c.0004044.1578007.1132011.2220993.2505989.1427994l2.4165001-1.3951988.0028.9955997-6.1988983 3.5789013-.0028-.9955025 2.4148979-1.3942986c.1389008-.0802002.2494011-.2733002.2490005-.4312l-.0135002-4.7535c-.0004997-.1596012-.1116982-.2230015-.2505989-.1428013l-2.4149017 1.3943005-.0028992-.9972992z" fill="#3f434f"/></g><g><path d="m38.3230019 28.0480499-32.9135976-19.1273002-.0028-.9972997 32.9134984 19.1273007z" fill="#525566"/></g><g><path d="m38.3201027 27.0507507-32.9134984-19.1273007 6.1988997-3.579 32.9136 19.1273003z" fill="#5b5e71"/></g></g></g></svg>