<svg id="Capa_1" enable-background="new 0 0 512 512" height="512" viewBox="0 0 512 512" width="512" xmlns="http://www.w3.org/2000/svg"><g><g><path clip-rule="evenodd" d="m317.293 71.347c-16.194-7.14-34.12-11.114-52.969-11.114-24.247 0-46.965 6.593-66.45 18.052-15.068-8.148-32.301-12.755-50.631-12.755-58.829 0-106.545 47.563-106.545 106.269 0 15.835 3.493 30.864 9.728 44.368-16.973 15.231-27.654 37.314-27.654 61.873 0 44.684 35.274 81.105 79.555 83.121 2.685 43.533 38.94 78.025 83.25 78.025 13.019 0 25.344-2.994 36.342-8.292 14.837 23.033 40.73 38.293 70.231 38.293 27.74 0 52.305-13.532 67.489-34.319 8.342 2.793 17.262 4.319 26.528 4.319 46.07 0 83.423-37.256 83.423-83.207 0-12.899-2.915-25.077-8.169-35.961 19.109-15.259 31.349-38.724 31.349-65.011 0-25.02-11.056-47.477-28.577-62.737 1.703-6.622 2.598-13.561 2.598-20.701 0-16.181-4.619-31.268-12.614-44.022-23.346-30.714-58.484-39.329-136.884-56.201z" fill="#c2bce0" fill-rule="evenodd"/></g><g><path clip-rule="evenodd" d="m461.421 320.019c19.109-15.259 31.349-38.724 31.349-65.011 0-25.02-11.056-47.477-28.577-62.737 1.703-6.622 2.598-13.561 2.598-20.701 0-9.04-1.443-17.764-4.128-25.912-30.915-24.271-48.582-17.966-48.986 3.57.924 11.43-.895 36.824-1.674 42.698 37.035 25.135 32.936 66.249 4.619 97.948 29.501 46.153 9.093 100.453-46.561 107.162-8.342.979-16.54.605-24.334-1.008-19.802 35.327-56.982 57.496-123.806 34.866 14.837 23.033 40.73 38.293 70.231 38.293 27.74 0 52.305-13.532 67.489-34.319 8.342 2.793 17.262 4.319 26.528 4.319 46.07 0 83.423-37.256 83.423-83.207-.002-12.899-2.917-25.078-8.171-35.961z" fill="#aca6d6" fill-rule="evenodd"/></g><g><path d="m85.556 179.037c-4.268 0-7.726-3.459-7.726-7.726 0-36.313 29.611-65.856 66.007-65.856 4.268 0 7.726 3.459 7.726 7.726 0 4.268-3.459 7.726-7.726 7.726-27.876 0-50.554 22.611-50.554 50.403 0 4.268-3.459 7.727-7.727 7.727z" fill="#aca6d6"/></g><g><path clip-rule="evenodd" d="m482.089 77.94c17.81-30.289 1.126-66.998-39.113-60.75-20.581-26.834-70.808-23.35-79.064 18.225-20.206-.633-38.074 11.401-45.579 29.137-2.021 4.722-3.262 9.875-3.637 15.288-1.847 26.315 18.07 49.118 44.454 50.932l2.54.173c4.272 13.014 16.107 22.774 30.627 23.782 10.19.72 19.629-3.023 26.441-9.559 5.773 3.052 12.21 4.952 19.138 5.442 12.586.864 24.363-3.196 33.456-10.538 9.988-8.062 16.713-20.068 17.666-33.859.721-10.307-1.877-20.096-6.929-28.273z" fill="#f4eafa" fill-rule="evenodd"/></g><g><path clip-rule="evenodd" d="m162.023 422.228c16.771-28.561 1.068-63.111-36.862-57.237-19.369-25.279-66.709-21.997-74.474 17.16-19.052-.576-35.88 10.739-42.953 27.467-1.876 4.463-3.089 9.3-3.435 14.396-1.703 24.789 17.031 46.268 41.885 47.995l2.396.144c4.041 12.265 15.184 21.478 28.866 22.4 9.584.662 18.474-2.85 24.911-8.983 5.427 2.85 11.518 4.664 18.012 5.125 11.864.806 22.948-3.023 31.522-9.933 9.41-7.601 15.761-18.916 16.656-31.901.692-9.732-1.79-18.945-6.524-26.633z" fill="#f4eafa" fill-rule="evenodd"/></g><g><path clip-rule="evenodd" d="m371.702 255.876v22.365c0 15.288-9.035 28.567-22.025 34.841-5.048 2.442-10.735 3.801-16.71 3.801h-17.091v28.701c0 9.591-7.881 17.451-17.493 17.451h-81.23c-9.612 0-17.492-7.86-17.492-17.451v-28.701h-17.091c-5.975 0-11.662-1.36-16.71-3.801-12.991-6.274-21.994-19.553-21.994-34.841v-22.365c0-24.137 7.623-46.585 20.635-65.046 8.55-12.146 19.429-22.571 31.956-30.607 17.729-11.373 38.797-17.997 61.316-17.997 22.54 0 43.587 6.624 61.306 17.997 12.558 8.035 23.416 18.461 31.987 30.607 12.992 18.462 20.636 40.909 20.636 65.046z" fill="#f4eafa" fill-rule="evenodd"/></g><g><path clip-rule="evenodd" d="m281.384 363.033h3.204 13.798c9.612 0 17.493-7.86 17.493-17.448v-3.743-24.962h17.089c5.975 0 11.662-1.353 16.713-3.8 12.99-6.277 22.025-19.549 22.025-34.838v-22.371c0-24.127-7.649-46.585-20.639-65.04-8.573-12.15-19.427-22.572-31.984-30.605-14.577-9.357-31.406-15.49-49.448-17.361 42.375 13.359 81.749 51.911 81.749 97.056v20.125c0 19.089-15.645 34.694-34.784 34.694-16.54 0-19.513 9.3-19.513 25.999v26.632c0 8.608-7.072 15.662-15.703 15.662z" fill="#dedbee" fill-rule="evenodd"/></g><g><path clip-rule="evenodd" d="m288.6 217.521c-8.862 2.159-13.047 10.25-10.911 18.973 3.493 14.281 17.955 23.062 32.272 19.578 14.318-3.484 23.122-17.908 19.629-32.189-2.454-9.962-9.612-13.993-16.482-12.323z" fill="#025f80" fill-rule="evenodd"/></g><g><path clip-rule="evenodd" d="m202.435 211.561c-6.87-1.67-14.029 2.361-16.454 12.323-3.493 14.281 5.282 28.705 19.6 32.189 14.346 3.484 28.779-5.298 32.272-19.578 2.136-8.724-2.049-16.814-10.911-18.973z" fill="#025f80" fill-rule="evenodd"/></g><g><path clip-rule="evenodd" d="m392.316 154.727c10.19.72 19.629-3.023 26.441-9.559 5.773 3.052 12.21 4.952 19.138 5.442 8.862.605 17.348-1.238 24.767-4.952 3.089-1.526 6.004-3.426 8.689-5.586 9.988-8.062 16.713-20.068 17.666-33.859.722-10.307-1.876-20.096-6.928-28.273 17.81-30.289 1.126-66.998-39.142-60.75-2.021-2.62-4.33-4.981-6.87-7.025-16.309-13.215-41.798-13.877-57.992 0-6.812 5.816-11.979 14.165-14.173 25.25-6.87-.23-13.452 1.036-19.456 3.455-11.691 4.751-21.159 13.964-26.124 25.682-.866 2.044-1.588 4.146-2.165 6.305-.779 2.879-1.27 5.902-1.472 8.983-1.847 26.315 18.07 49.118 44.454 50.932l2.078.144.462.029c.144.461.318.921.491 1.382 4.647 12.323 16.136 21.421 30.136 22.4z" fill="#f4eafa" fill-rule="evenodd"/></g><g><path clip-rule="evenodd" d="m120.369 490.694c11.864.806 22.948-3.023 31.522-9.933 9.41-7.601 15.761-18.916 16.656-31.901.289-3.973.029-7.831-.664-11.545-1.039-5.442-3.06-10.538-5.86-15.087 16.771-28.561 1.068-63.111-36.862-57.237-12.441-16.238-36.429-20.701-54.037-11.43-9.814 5.154-17.666 14.568-20.437 28.59-19.052-.576-35.88 10.739-42.953 27.467-1.876 4.463-3.089 9.3-3.435 14.396-1.703 24.789 17.031 46.268 41.885 47.995l2.396.144c4.041 12.265 15.184 21.478 28.866 22.4 9.584.662 18.474-2.85 24.911-8.983 5.426 2.85 11.517 4.664 18.012 5.124z" fill="#f4eafa" fill-rule="evenodd"/></g><g><path clip-rule="evenodd" d="m471.351 140.072c9.988-8.062 16.713-20.068 17.666-33.859.722-10.307-1.876-20.096-6.928-28.273 17.81-30.289 1.126-66.998-39.142-60.75-2.021-2.62-4.33-4.981-6.87-7.025-16.309-13.215-41.798-13.877-57.992 0-3.175 2.706-6.004 5.96-8.342 9.818 14.318-.489 28.924 5.47 37.901 17.16 40.268-6.248 56.953 30.433 39.142 60.75 5.023 8.177 7.65 17.937 6.928 28.273-.058.633-.115 1.296-.173 1.958-.924 8.35-3.983 16.008-8.602 22.457 6.322-.489 12.297-2.188 17.724-4.923 3.088-1.526 6.003-3.426 8.688-5.586z" fill="#dedbee" fill-rule="evenodd"/></g><g><path clip-rule="evenodd" d="m151.891 480.761c9.41-7.601 15.761-18.916 16.656-31.901.289-3.973.029-7.831-.664-11.545v-.029c-1.039-5.413-3.06-10.509-5.86-15.058 16.771-28.561 1.068-63.111-36.862-57.237-12.441-16.238-36.429-20.701-54.037-11.43-4.734 2.476-9.006 5.96-12.47 10.451 10.256 1.422 20.043 6.352 26.837 14.47.667.797 1.678 1.205 2.709 1.075 6.601-.83 12.507-.427 17.65.981 17.118 4.664 25.806 20.298 24.017 37.371-.612 5.809-2.473 11.813-5.628 17.608-.503.924-.49 2.029.028 2.945 4.192 7.406 6.309 16.072 5.687 25.168-.682 9.796-4.484 18.666-10.333 25.687.278.625.33.743.608 1.368 11.916.846 23.054-2.986 31.662-9.924z" fill="#dedbee" fill-rule="evenodd"/></g><g><path clip-rule="evenodd" d="m473.285 512c18.359 0 33.369-14.252 34.524-32.275v-4.492c-1.155-18.023-16.165-32.275-34.524-32.275-19.109 0-34.61 15.461-34.61 34.521s15.501 34.521 34.61 34.521z" fill="#025f80" fill-rule="evenodd"/></g><g><path clip-rule="evenodd" d="m473.285 512c18.359 0 33.369-14.252 34.524-32.275v-4.492c-1.155-18.023-16.165-32.275-34.524-32.275-1.414 0-2.8.086-4.186.23 11.402 5.125 19.542 16.21 20.379 29.252v4.52c-1.068 16.613-13.971 30.058-30.367 32.016 4.331 1.93 9.122 3.024 14.174 3.024z" fill="#024c67" fill-rule="evenodd"/></g><g><path d="m246.133 322.436v40.599h-15.453v-40.599c0-4.265 3.451-7.726 7.726-7.726 4.266 0 7.727 3.461 7.727 7.726z" fill="#aca6d6"/></g><g><path d="m284.868 322.436v40.599h-15.453v-40.599c0-4.265 3.462-7.726 7.726-7.726 4.265 0 7.727 3.461 7.727 7.726z" fill="#aca6d6"/></g><g><path d="m257.772 301.776c-1.977 0-3.954-.754-5.462-2.262l-14.261-14.253c-3.018-3.016-3.019-7.908-.003-10.927s7.908-3.02 10.927-.003l8.799 8.794 8.798-8.794c3.017-3.017 7.909-3.016 10.927.003 3.016 3.018 3.015 7.909-.003 10.927l-14.26 14.253c-1.509 1.508-3.485 2.262-5.462 2.262z" fill="#aca6d6"/></g></g></svg>