<svg id="Layer_3" enable-background="new 0 0 64 64" height="512" viewBox="0 0 64 64" width="512" xmlns="http://www.w3.org/2000/svg"><g><path d="m22 42h-16c-2.209 0-4-1.791-4-4v-32c0-2.209 1.791-4 4-4h32c2.209 0 4 1.791 4 4v16z" fill="#9d9da0"/><path d="m36 2h-10l-24 24v10z" fill="#ccc"/><circle cx="9" cy="9" fill="#66676c" r="2"/><circle cx="9" cy="35" fill="#66676c" r="2"/><path d="m58 62h-32c-2.209 0-4-1.791-4-4v-32c0-2.209 1.791-4 4-4h32c2.209 0 4 1.791 4 4v32c0 2.209-1.791 4-4 4z" fill="#8a8b8e"/><path d="m2 30 28-28h7l-35 35z" fill="#aeaeaf"/><path d="m56 22h-10l-24 24v10z" fill="#aeaeaf"/><path d="m22 50 28-28h7l-35 35z" fill="#98999b"/><path d="m62 42v-9l-29 29h9z" fill="#9d9da0"/><g fill="#66676c"><circle cx="35" cy="9" r="2"/><circle cx="29" cy="29" r="2"/><circle cx="29" cy="55" r="2"/><circle cx="55" cy="29" r="2"/><circle cx="55" cy="55" r="2"/></g><path d="m62 42-20 20h-5l25-25z" fill="#86878c"/></g></svg>