<svg id="Capa_1" enable-background="new 0 0 512 512" height="512" viewBox="0 0 512 512" width="512" xmlns="http://www.w3.org/2000/svg"><g><path d="m372.606 415.391c12.051 12.051 28.7 19.505 47.09 19.505 36.779 0 66.595-29.816 66.595-66.595 0-13.206-3.86-25.503-10.49-35.856 20.969-6.503 36.199-26.053 36.199-49.16 0-19.618-10.979-36.667-27.126-45.351 2.318-6.332 3.583-13.171 3.583-20.306 0-32.621-26.444-59.065-59.065-59.065-5.068 0-9.985.64-14.679 1.84-1.278-21.233-18.895-38.061-40.45-38.061-.042 0-.083.003-.125.003.075-1.217.125-2.44.125-3.676 0-32.621-26.445-59.065-59.065-59.065-19.25 0-36.344 9.213-47.127 23.465-14.239-27.528-42.954-46.356-76.084-46.356-47.292 0-85.629 38.337-85.629 85.629 0 .419.026.831.032 1.249-3.202-.814-6.556-1.249-10.011-1.249-22.385 0-40.532 18.147-40.532 40.532 0 5.932 1.285 11.56 3.575 16.638-25.656 6.432-44.658 29.637-44.658 57.288 0 16.608 6.865 31.606 17.9 42.337-19.361 9.696-32.661 29.706-32.661 52.833 0 32.621 26.444 59.065 59.065 59.065 1.337 0 2.658-.06 3.973-.148 3.612 24.889 25.029 44.01 50.919 44.01 14.211 0 27.077-5.76 36.39-15.073" fill="#cbe2ff"/><path d="m191.984 36.718c14.247 0 27.681 3.482 39.497 9.642-27.403 14.278-46.111 42.948-46.111 75.986 0 .412.021.824.031 1.246-3.204-.813-6.552-1.246-10.013-1.246-22.386 0-40.527 18.142-40.527 40.528 0 5.934 1.277 11.558 3.575 16.637-25.662 6.439-44.658 29.638-44.658 57.288 0 16.607 6.861 31.606 17.894 42.34-19.357 9.694-32.657 29.7-32.657 52.828 0 32.626 26.445 59.07 59.06 59.07 1.339 0 2.658-.062 3.976-.144 1.617 11.167 6.82 21.17 14.412 28.804l-6.119.124c-9.313 9.313-22.18 15.082-36.386 15.082-25.888 0-47.306-19.12-50.922-44.009-1.308.082-2.637.144-3.966.144-32.625 0-59.07-26.445-59.07-59.07 0-23.128 13.3-43.134 32.657-52.828-11.033-10.734-17.894-25.734-17.894-42.34 0-27.65 18.996-50.849 44.658-57.288-2.287-5.079-3.575-10.704-3.575-16.637 0-22.386 18.142-40.528 40.527-40.528 3.461 0 6.809.433 10.013 1.246 0-.422-.031-.834-.031-1.246.001-47.296 38.333-85.629 85.629-85.629z" fill="#bed8fb"/><path d="m171.676 511.999c-19.825-20.769-60.322-78.655-11.903-170.732 0 0 19.264 42.563 62.839 16.213 43.576-26.351 43.576-90.189 27.363-139.852 0 0 123.626 32.439 130.727 186.479 0 0 23.3-10.138 29.388-29.402 0 0 30.537 85.92-26.022 137.294h-52.811l-52.401-23.291-42.864 23.291z" fill="#e28086"/><path d="m235.993 511.999c-12.874-20.577-39.882-74.031-6.293-118.03 0 0 6.088 29.388 28.375 40.538 0 0 44.588-56.751 44.588-104.39 0 0 69.666 84.812 28.594 181.882" fill="#ffe07d"/><path d="m450.121 37.075c1.378-3.214 2.144-6.754 2.144-10.472 0-14.692-11.91-26.602-26.602-26.602s-26.602 11.91-26.602 26.602c0 10.709 6.331 19.934 15.452 24.152-5.885 6.932-9.443 15.901-9.443 25.707 0 21.953 17.796 39.749 39.749 39.749s39.749-17.796 39.749-39.749c.001-20.155-15.002-36.794-34.447-39.387z" fill="#cbe2ff"/><path d="m454.756 114.97c-3.183.814-6.511 1.246-9.941 1.246-21.953 0-39.744-17.802-39.744-39.755 0-9.807 3.554-18.77 9.436-25.703-9.117-4.224-15.453-13.444-15.453-24.158 0-14.69 11.919-26.599 26.609-26.599 3.523 0 6.882.68 9.952 1.927-9.766 3.935-16.658 13.495-16.658 24.672 0 10.714 6.325 19.934 15.453 24.158-5.893 6.933-9.447 15.896-9.447 25.703 0 18.513 12.661 34.079 29.793 38.509z" fill="#bed8fb"/><circle cx="44.535" cy="63.44" fill="#cbe2ff" r="33.819"/><path d="m31.655 63.44c0-15.022 9.798-27.75 23.35-32.159-3.297-1.072-6.814-1.66-10.469-1.66-18.678 0-33.819 15.141-33.819 33.819s15.141 33.819 33.819 33.819c3.655 0 7.172-.587 10.469-1.66-13.552-4.409-23.35-17.136-23.35-32.159z" fill="#bed8fb"/></g></svg>