<?xml version="1.0" standalone="no"?>
<!DOCTYPE svg PUBLIC "-//W3C//DTD SVG 20010904//EN"
 "http://www.w3.org/TR/2001/REC-SVG-20010904/DTD/svg10.dtd">
<svg version="1.0" xmlns="http://www.w3.org/2000/svg"
 width="512.000000pt" height="512.000000pt" viewBox="0 0 512.000000 512.000000"
 preserveAspectRatio="xMidYMid meet">

<g transform="translate(0.000000,512.000000) scale(0.100000,-0.100000)"
fill="#000000" stroke="none">
<path d="M1686 5105 c-134 -34 -278 -148 -343 -271 -66 -125 -63 -16 -63
-1881 0 -1141 -3 -1694 -10 -1698 -23 -14 -94 -122 -131 -198 -55 -116 -72
-205 -66 -347 4 -73 13 -137 25 -175 80 -251 268 -435 517 -507 104 -29 286
-32 385 -4 259 71 465 277 536 536 13 46 18 101 18 185 0 181 -46 319 -153
456 l-51 64 0 1665 c0 1030 -4 1692 -10 1735 -20 143 -130 306 -255 380 -113
65 -278 90 -399 60z m191 -2142 c12 -8 26 -28 32 -45 8 -21 11 -322 11 -952
l1 -921 39 -18 c51 -24 113 -87 142 -145 19 -39 23 -63 23 -137 0 -78 -4 -97
-27 -140 -32 -60 -87 -114 -148 -146 -65 -34 -204 -34 -272 -1 -232 114 -244
438 -21 564 l53 30 0 933 c0 927 0 932 21 959 34 43 96 51 146 19z"/>
<path d="M294 4263 c-12 -2 -34 -17 -49 -33 -41 -42 -39 -101 4 -143 l31 -32
360 0 360 0 31 32 c45 44 45 102 0 146 l-31 32 -343 1 c-188 1 -352 0 -363 -3z"/>
<path d="M698 3824 c-65 -35 -73 -121 -17 -168 30 -25 35 -26 176 -26 l145 0
29 29 c54 54 36 146 -33 170 -48 17 -267 13 -300 -5z"/>
<path d="M3230 3620 c-126 -20 -224 -73 -315 -171 -61 -67 -94 -124 -122 -214
-16 -55 -18 -103 -18 -570 0 -498 1 -512 22 -580 55 -174 203 -314 380 -360
81 -21 396 -21 478 0 223 59 395 275 395 498 0 51 -4 62 -29 88 -16 16 -40 30
-53 30 -88 5 -117 -26 -132 -141 -15 -107 -86 -202 -185 -249 -51 -24 -69 -26
-206 -29 -92 -3 -171 1 -205 8 -68 15 -151 67 -189 121 -62 85 -62 86 -59 635
l3 499 27 50 c32 60 87 114 148 146 41 22 59 24 222 27 198 4 242 -4 317 -59
75 -53 113 -131 136 -271 13 -84 114 -117 174 -57 27 27 31 37 31 88 0 123
-56 256 -148 350 -127 130 -214 162 -452 166 -91 2 -190 0 -220 -5z"/>
<path d="M4520 3616 c-71 -16 -107 -35 -157 -86 -68 -67 -88 -119 -88 -225 0
-78 4 -97 27 -140 32 -60 87 -114 148 -146 37 -20 60 -24 135 -24 106 0 158
20 225 88 51 51 75 96 88 167 41 222 -157 414 -378 366z m139 -237 c82 -81
-15 -218 -118 -165 -67 35 -78 122 -20 170 44 38 98 36 138 -5z"/>
<path d="M681 3384 c-57 -48 -47 -135 19 -169 35 -18 249 -21 298 -4 69 24 87
116 33 170 l-29 29 -145 0 c-141 0 -146 -1 -176 -26z"/>
<path d="M294 2983 c-12 -2 -34 -17 -49 -33 -41 -42 -39 -101 4 -143 l31 -32
360 0 360 0 31 32 c45 44 45 102 0 146 l-31 32 -343 1 c-188 1 -352 0 -363 -3z"/>
<path d="M698 2544 c-65 -35 -73 -121 -17 -168 30 -25 35 -26 176 -26 l145 0
29 29 c54 54 36 146 -33 170 -48 17 -267 13 -300 -5z"/>
<path d="M681 2104 c-57 -48 -47 -135 19 -169 35 -18 249 -21 298 -4 69 24 87
116 33 170 l-29 29 -145 0 c-141 0 -146 -1 -176 -26z"/>
<path d="M294 1703 c-12 -2 -34 -17 -49 -33 -41 -42 -39 -101 4 -143 l31 -32
360 0 360 0 31 32 c45 44 45 102 0 146 l-31 32 -343 1 c-188 1 -352 0 -363 -3z"/>
</g>
</svg>
