<?xml version="1.0" standalone="no"?>
<!DOCTYPE svg PUBLIC "-//W3C//DTD SVG 20010904//EN"
 "http://www.w3.org/TR/2001/REC-SVG-20010904/DTD/svg10.dtd">
<svg version="1.0" xmlns="http://www.w3.org/2000/svg"
 width="563.000000pt" height="443.000000pt" viewBox="0 0 563.000000 443.000000"
 preserveAspectRatio="xMidYMid meet">

<g transform="translate(0.000000,443.000000) scale(0.100000,-0.100000)"
fill="#000000" stroke="none">
<path d="M834 4346 c-106 -26 -212 -116 -262 -224 -24 -50 -27 -69 -27 -162 0
-97 2 -110 32 -172 96 -203 318 -286 520 -194 157 73 242 215 230 388 -17 251
-250 423 -493 364z"/>
<path d="M4238 4030 c-26 -16 -23 -67 8 -147 56 -145 66 -194 71 -336 7 -164
-6 -254 -52 -384 -41 -114 -74 -174 -210 -378 -166 -250 -217 -373 -231 -558
-8 -105 -22 -127 -82 -127 -67 0 -158 74 -206 167 -27 54 -46 153 -46 248 0
96 -3 106 -37 124 -38 20 -67 -1 -116 -86 -216 -369 -255 -822 -102 -1168 99
-223 333 -456 571 -570 96 -46 119 -51 149 -31 44 29 34 68 -34 135 -117 116
-154 205 -154 376 1 205 57 265 125 131 55 -110 113 -166 171 -166 42 0 48 26
26 105 -38 139 -22 304 50 510 36 101 138 255 170 255 5 0 13 -17 16 -37 14
-98 39 -172 109 -314 91 -184 101 -237 67 -334 -28 -80 -27 -120 4 -150 31
-32 74 -32 140 -1 55 25 90 56 149 129 73 89 101 51 93 -126 -2 -66 -11 -130
-20 -155 -28 -73 -87 -150 -163 -213 -61 -50 -74 -65 -74 -89 0 -44 39 -67 88
-52 117 36 280 143 418 275 437 417 517 1128 189 1687 -63 107 -103 150 -142
150 -46 0 -57 -21 -47 -83 5 -28 8 -113 8 -187 -1 -155 -15 -210 -85 -317 -71
-109 -155 -166 -244 -166 -97 0 -153 55 -162 163 -7 75 5 121 78 302 122 303
143 479 88 706 -50 205 -147 369 -328 555 -126 131 -210 183 -253 157z"/>
<path d="M3609 3476 c-41 -20 -44 -56 -10 -140 56 -141 61 -222 20 -374 -26
-97 -24 -118 10 -152 57 -57 110 -49 194 29 162 151 137 390 -59 571 -68 62
-119 84 -155 66z"/>
<path d="M448 3401 c-31 -10 -76 -30 -100 -44 -56 -32 -139 -121 -168 -178
-48 -93 -50 -115 -50 -619 0 -433 2 -478 18 -509 36 -73 111 -98 184 -62 80
38 78 26 78 488 0 457 -1 453 65 453 69 0 65 67 65 -1050 l0 -1006 22 -44 c26
-50 89 -90 143 -90 46 1 109 34 136 71 l24 34 5 527 c6 585 3 562 71 560 66
-2 63 23 69 -562 5 -514 6 -529 26 -556 38 -51 71 -69 128 -69 69 1 115 28
144 85 l22 44 0 976 c1 536 5 995 9 1019 10 48 23 61 63 61 51 0 53 -10 58
-460 6 -461 4 -451 75 -484 66 -32 150 -8 187 53 23 36 23 37 26 505 3 507 2
518 -53 626 -54 104 -162 193 -283 230 -60 19 -93 20 -486 19 -379 0 -427 -2
-478 -18z"/>
<path d="M203 582 c-148 -142 -166 -170 -141 -215 7 -13 75 -83 150 -156 112
-107 142 -131 166 -131 47 0 77 30 77 79 0 36 -7 47 -53 94 -29 29 -49 56 -46
60 4 4 1006 7 2226 7 1661 0 2218 -3 2218 -11 0 -7 -20 -34 -45 -60 -38 -40
-45 -55 -45 -88 0 -31 6 -44 26 -60 55 -43 75 -33 242 132 116 116 132 136
132 165 0 37 -5 42 -182 211 -127 121 -149 131 -193 86 -40 -40 -34 -83 21
-144 l46 -51 -2221 0 c-1222 0 -2221 2 -2221 4 0 2 23 26 51 54 46 46 50 54
44 84 -3 18 -18 43 -31 56 -48 43 -67 33 -221 -116z"/>
</g>
</svg>
