<svg id="Capa_1" enable-background="new 0 0 512 512" height="512" viewBox="0 0 512 512" width="512" xmlns="http://www.w3.org/2000/svg"><g><path d="m256.949.625 41.07 95.676c.254.591.98.809 1.517.455l76.428-50.342c.71-.468 1.649.075 1.599.924l-5.441 91.381c-.038.643.514 1.163 1.153 1.087l103.43-12.352c.901-.108 1.493.917.95 1.644l-62.35 83.408c-.385.515-.211 1.253.364 1.541l81.788 41.03c.759.381.759 1.465 0 1.846l-81.788 41.03c-.575.288-.749 1.026-.364 1.541l62.35 83.409c.544.727-.048 1.751-.95 1.644l-103.43-12.352c-.639-.076-1.192.444-1.153 1.087l5.441 91.381c.051.849-.889 1.391-1.599.924l-76.427-50.342c-.537-.354-1.263-.136-1.517.455l-41.07 95.676c-.358.834-1.54.834-1.898 0l-41.07-95.676c-.254-.591-.98-.809-1.517-.455l-76.428 50.342c-.71.468-1.649-.075-1.599-.924l5.441-91.381c.038-.643-.514-1.163-1.153-1.087l-103.43 12.352c-.901.108-1.493-.917-.95-1.644l62.35-83.408c.385-.515.211-1.253-.364-1.541l-81.788-41.03c-.76-.381-.76-1.465 0-1.846l81.788-41.03c.575-.288.749-1.026.364-1.541l-62.35-83.409c-.544-.727.048-1.751.95-1.644l103.43 12.352c.639.076 1.192-.444 1.153-1.087l-5.441-91.381c-.051-.849.889-1.391 1.599-.924l76.427 50.342c.537.354 1.263.136 1.517-.455l41.07-95.676c.358-.833 1.54-.833 1.898 0z" fill="#fed402"/><path d="m226.489 371.142-59.656 39.295 4.25-71.382-74.299 8.872 44.755-59.87-63.902-32.057 63.902-32.057-44.754-59.87 74.299 8.872-4.251-71.382 59.655 39.294 29.512-68.748 29.512 68.748 59.656-39.294-4.251 71.382 74.299-8.872-44.755 59.87 63.902 32.057-63.902 32.057 44.754 59.87-74.298-8.872 4.25 71.382-59.655-39.295-29.512 68.748z" fill="#fd6930"/><g fill="#fd5426"><path d="m300.777 134.393c-.557 9.351 7.483 16.927 16.784 15.816l21.638-2.584c1.111-.133 2.19-.147 3.229-.056l2.74-46.006-44.168 29.093z"/><path d="m370.461 288.057 63.902-32.057-63.902-32.057 44.755-59.871-62.161 7.423c-.012.017-.024.033-.036.05l-13.017 17.413c-5.603 7.496-3.067 18.235 5.298 22.431l21.076 10.573c11.053 5.545 11.053 21.321 0 26.866l-21.076 10.573c-8.365 4.196-10.902 14.935-5.298 22.431l13.017 17.413c7.91 10.582-.701 25.487-13.819 23.92l-21.638-2.584c-9.301-1.111-17.341 6.465-16.784 15.816l1.398 23.49c.445 7.481-4.395 13.328-10.577 15.264l53.569 35.285-4.25-71.382 74.298 8.873z"/><path d="m278.907 373.331-19.609-12.917c-7.816-5.148-18.385-1.978-22.077 6.622l-6.247 14.552 25.026 58.302 27.673-64.465c-1.623-.396-3.232-1.083-4.766-2.094z"/></g><path d="m256 284.444c-8.125 0-14.979-6.05-15.986-14.112l-10.195-81.556c-1.202-9.616 6.296-18.109 15.986-18.109h20.389c9.691 0 17.188 8.493 15.986 18.109l-10.195 81.556c-1.007 8.062-7.86 14.112-15.985 14.112z" fill="#fed402"/><circle cx="256" cy="334.222" fill="#fed402" r="21.333"/></g></svg>