<?xml version="1.0" standalone="no"?>
<!DOCTYPE svg PUBLIC "-//W3C//DTD SVG 20010904//EN"
 "http://www.w3.org/TR/2001/REC-SVG-20010904/DTD/svg10.dtd">
<svg version="1.0" xmlns="http://www.w3.org/2000/svg"
 width="431.000000pt" height="431.000000pt" viewBox="0 0 431.000000 431.000000"
 preserveAspectRatio="xMidYMid meet">

<g transform="translate(0.000000,431.000000) scale(0.100000,-0.100000)"
fill="#000000" stroke="none">
<path d="M1930 4220 c-524 -73 -965 -292 -1297 -644 -268 -285 -442 -612 -534
-1006 -146 -619 38 -1337 467 -1825 48 -55 93 -104 99 -110 300 -280 590 -442
979 -545 397 -105 787 -89 1201 51 503 171 920 522 1167 984 82 153 112 228
157 384 75 260 86 342 86 621 0 277 -12 358 -84 598 -56 184 -109 305 -215
490 -137 241 -487 589 -713 708 -26 14 -84 45 -128 69 -168 91 -344 151 -589
201 -99 20 -158 26 -326 29 -113 2 -234 0 -270 -5z m390 -170 c203 -21 439
-84 611 -163 41 -19 137 -71 211 -116 400 -238 699 -609 841 -1046 140 -430
138 -776 -8 -1225 -135 -413 -422 -771 -815 -1017 -184 -115 -454 -217 -685
-259 -156 -29 -492 -27 -642 4 -400 81 -705 233 -988 494 -318 293 -505 639
-586 1088 -97 534 65 1121 427 1550 240 284 530 483 868 594 272 89 524 121
766 96z"/>
<path d="M2106 3938 c-28 -8 -46 -22 -68 -53 -29 -42 -32 -43 -101 -50 -170
-16 -441 -105 -603 -197 -156 -89 -207 -141 -172 -176 21 -21 47 -13 126 35
193 117 367 188 547 223 146 28 178 27 196 -6 7 -14 25 -36 40 -49 26 -21 27
-27 31 -129 3 -93 6 -110 22 -122 25 -18 37 -18 62 0 16 12 19 29 22 126 4
107 5 112 28 122 14 6 34 26 45 45 25 40 34 40 185 13 194 -35 382 -114 620
-261 27 -17 32 -17 52 -3 41 29 29 59 -46 111 -181 127 -509 250 -721 269 -71
7 -72 8 -92 45 -16 32 -27 41 -71 54 -28 8 -54 15 -57 14 -3 -1 -23 -6 -45
-11z m82 -104 c40 -28 19 -94 -30 -94 -27 0 -58 28 -58 52 0 21 34 58 53 58 7
0 23 -7 35 -16z"/>
<path d="M1016 3434 c-26 -25 -20 -72 9 -86 51 -23 90 54 43 86 -28 20 -33 20
-52 0z"/>
<path d="M3240 3430 c-11 -11 -20 -28 -20 -38 0 -22 30 -52 53 -52 21 0 47 27
47 51 0 20 -33 59 -50 59 -5 0 -19 -9 -30 -20z"/>
<path d="M1360 3300 c-136 -25 -237 -65 -352 -139 l-58 -36 0 -72 0 -73 -50 0
c-59 0 -100 -18 -124 -56 -17 -24 -18 -90 -17 -973 0 -520 0 -954 1 -963 0
-10 14 -33 31 -53 l31 -35 509 0 508 0 15 -29 c36 -68 159 -136 266 -147 123
-12 256 42 331 136 l32 40 502 0 c492 0 503 0 528 21 15 11 31 37 37 57 8 26
10 331 8 982 -3 927 -3 946 -23 972 -25 33 -63 48 -126 48 l-49 0 0 75 0 74
-72 43 c-182 105 -345 148 -567 148 -224 0 -374 -41 -497 -133 l-70 -53 -45
38 c-146 128 -463 182 -749 128z m392 -134 c90 -17 217 -65 281 -106 l47 -30
0 -880 0 -880 -37 23 c-55 35 -159 74 -260 98 -113 28 -291 30 -416 5 -96 -18
-243 -67 -294 -97 l-33 -18 0 872 0 872 38 21 c65 38 221 94 316 113 110 24
257 26 358 7z m1203 -14 c88 -26 215 -76 278 -110 l47 -25 0 -870 c0 -691 -3
-868 -12 -864 -7 3 -49 21 -94 40 -166 71 -367 104 -537 86 -148 -15 -296 -62
-379 -121 l-28 -19 0 878 0 879 28 21 c65 48 197 101 307 122 83 16 309 6 390
-17z m-1997 -1124 l2 -817 -29 -20 c-16 -12 -31 -21 -33 -21 -2 0 -2 1648 1
1673 1 5 13 7 29 5 l27 -3 3 -817z m2462 -18 l0 -841 -30 16 -30 16 0 824 0
825 30 0 30 0 0 -840z m-1670 -790 c155 -19 273 -67 352 -145 l48 -46 66 57
c36 30 87 65 113 76 186 79 517 89 780 22 98 -25 264 -99 293 -131 16 -17 2
-18 -487 -18 -277 0 -506 3 -510 6 -9 10 108 46 185 59 92 14 195 12 335 -6
66 -8 149 -14 185 -12 l65 3 -80 27 c-137 46 -242 61 -400 55 -217 -8 -377
-61 -447 -150 l-32 -40 61 5 c57 4 61 3 52 -14 -19 -35 -76 -69 -127 -75 -88
-10 -136 3 -189 52 l-48 44 70 -5 70 -5 -50 47 c-161 153 -540 191 -850 86
l-80 -27 60 -3 c33 -2 114 4 180 12 67 9 161 16 210 16 96 0 253 -28 301 -53
26 -14 19 -15 -126 -21 -203 -8 -850 -3 -850 7 0 4 26 24 58 44 173 111 507
167 792 133z"/>
<path d="M1530 3060 c-15 -28 4 -60 34 -60 32 0 50 24 42 55 -5 20 -13 25 -36
25 -19 0 -33 -7 -40 -20z"/>
<path d="M1717 3063 c-15 -15 -7 -63 13 -73 42 -22 82 34 48 68 -13 13 -50 16
-61 5z"/>
<path d="M1353 3053 c-7 -2 -13 -18 -13 -33 0 -53 64 -64 76 -14 10 40 -22 64
-63 47z"/>
<path d="M1890 2995 c-16 -19 -9 -45 16 -62 19 -12 24 -11 45 6 21 16 22 22
11 45 -13 29 -52 36 -72 11z"/>
<path d="M1172 2988 c-18 -18 -14 -56 7 -68 38 -20 70 15 56 60 -7 22 -44 27
-63 8z"/>
<path d="M1465 2854 c-67 -11 -183 -44 -238 -69 l-57 -26 0 -65 0 -64 40 20
c22 11 88 32 147 47 151 36 307 36 446 -1 54 -15 112 -33 128 -41 l29 -16 0
66 0 66 -54 24 c-92 41 -166 56 -291 60 -66 2 -133 1 -150 -1z"/>
<path d="M1362 2554 c-51 -13 -115 -35 -142 -49 l-50 -25 0 -65 0 -65 49 25
c108 54 192 70 371 70 160 0 168 -1 250 -31 47 -17 93 -35 103 -39 15 -6 17 0
17 58 l0 65 -51 21 c-156 67 -373 81 -547 35z"/>
<path d="M1435 2296 c-91 -19 -193 -49 -233 -70 -31 -16 -32 -19 -32 -81 0
-36 2 -65 5 -65 3 0 28 11 55 25 177 90 476 93 669 9 29 -13 55 -24 57 -24 2
0 4 30 4 66 l0 65 -45 20 c-128 57 -346 81 -480 55z"/>
<path d="M1458 2029 c-75 -11 -160 -35 -230 -66 l-58 -26 0 -64 c0 -58 2 -64
18 -58 240 103 476 113 697 30 36 -14 68 -25 70 -25 3 0 5 29 5 64 l0 65 -79
30 c-137 53 -285 70 -423 50z"/>
<path d="M1411 1745 c-82 -18 -156 -43 -203 -67 -38 -18 -38 -19 -38 -79 0
-54 2 -60 18 -54 194 79 347 100 526 75 57 -9 154 -36 229 -65 15 -6 17 0 17
54 l0 62 -52 23 c-93 41 -177 58 -308 62 -86 2 -145 -1 -189 -11z"/>
<path d="M2712 3068 c-27 -27 -6 -68 34 -68 33 0 49 25 36 55 -13 27 -49 34
-70 13z"/>
<path d="M2530 3056 c-28 -35 11 -93 48 -70 35 22 22 84 -18 84 -10 0 -23 -7
-30 -14z"/>
<path d="M2895 3040 c-3 -11 -3 -29 0 -41 10 -30 69 -23 73 9 2 13 -2 30 -8
38 -18 21 -57 18 -65 -6z"/>
<path d="M2348 2984 c-24 -52 36 -88 67 -40 13 19 14 29 5 45 -16 30 -57 28
-72 -5z"/>
<path d="M3082 2988 c-31 -31 11 -88 50 -67 34 18 17 79 -22 79 -9 0 -21 -5
-28 -12z"/>
<path d="M2585 2850 c-56 -10 -166 -45 -207 -67 -26 -12 -28 -18 -28 -74 0
-54 2 -61 18 -56 212 68 323 84 458 68 92 -11 247 -52 296 -77 l28 -15 0 64 0
64 -57 26 c-107 48 -199 68 -333 72 -69 2 -147 0 -175 -5z"/>
<path d="M2523 2560 c-39 -10 -94 -28 -122 -41 l-51 -21 0 -65 c0 -58 2 -64
18 -58 128 55 189 68 327 73 122 4 153 1 230 -18 50 -12 119 -35 154 -51 35
-16 65 -29 67 -29 2 0 4 29 4 66 l0 65 -52 24 c-29 13 -96 36 -148 50 -122 32
-314 35 -427 5z"/>
<path d="M2600 2299 c-59 -10 -200 -53 -231 -69 -16 -9 -19 -22 -19 -75 l0
-65 53 22 c115 47 186 60 327 61 146 1 241 -17 357 -68 30 -14 57 -25 59 -25
2 0 4 28 4 63 l0 63 -42 21 c-124 61 -372 96 -508 72z"/>
<path d="M2605 2030 c-64 -11 -133 -31 -207 -62 l-48 -20 0 -64 0 -63 72 25
c231 78 470 69 686 -26 l43 -19 -3 66 -3 67 -46 23 c-122 60 -354 95 -494 73z"/>
<path d="M2588 1750 c-55 -10 -170 -46 -210 -67 -26 -12 -28 -18 -28 -73 0
-33 1 -60 3 -60 2 0 40 13 84 29 184 68 414 65 613 -6 25 -9 50 -19 55 -23 39
-27 45 -21 45 44 l0 63 -57 26 c-109 48 -200 68 -333 72 -69 2 -146 0 -172 -5z"/>
<path d="M548 2809 c-21 -12 -24 -59 -6 -77 7 -7 21 -12 33 -12 44 0 61 52 27
83 -21 19 -30 20 -54 6z"/>
<path d="M3718 2809 c-21 -12 -24 -59 -6 -77 7 -7 21 -12 33 -12 44 0 61 52
27 83 -21 19 -30 20 -54 6z"/>
<path d="M496 2618 c-17 -27 -52 -186 -62 -278 -6 -58 -10 -68 -34 -82 -44
-25 -63 -71 -58 -141 4 -56 8 -64 45 -96 35 -32 41 -43 46 -93 8 -67 42 -221
58 -260 19 -47 74 -48 85 -2 3 12 -4 63 -15 112 -12 50 -24 116 -27 148 l-6
59 36 19 c50 26 80 91 71 151 -7 49 -59 115 -90 115 -16 0 -17 7 -11 68 3 37
15 101 26 142 25 97 26 136 1 150 -30 16 -49 12 -65 -12z m22 -444 c40 -28 19
-94 -30 -94 -27 0 -58 28 -58 52 0 21 34 58 53 58 7 0 23 -7 35 -16z"/>
<path d="M3754 2632 c-22 -15 -22 -43 1 -141 12 -55 26 -127 30 -158 l6 -58
-35 -13 c-59 -22 -95 -102 -76 -171 11 -41 68 -101 96 -101 19 0 14 -55 -17
-188 -25 -110 -25 -148 2 -162 16 -9 26 -8 43 3 23 16 51 117 76 272 9 57 17
75 41 97 34 31 59 84 59 125 0 27 -36 113 -48 113 -26 2 -43 33 -52 101 -15
108 -50 251 -68 272 -16 18 -39 22 -58 9z m104 -458 c24 -17 30 -62 10 -82
-37 -37 -113 12 -89 57 10 18 37 40 51 41 3 0 16 -7 28 -16z"/>
<path d="M536 1529 c-23 -34 0 -79 40 -79 33 0 52 40 36 75 -15 31 -55 34 -76
4z"/>
<path d="M3712 1538 c-7 -7 -12 -24 -12 -38 0 -32 17 -50 47 -50 38 0 56 55
27 84 -18 19 -45 21 -62 4z"/>
<path d="M1312 698 c-17 -17 -15 -53 6 -70 26 -24 145 -81 252 -121 147 -56
256 -84 393 -102 39 -5 55 -14 84 -46 66 -73 161 -74 225 0 30 35 39 39 113
50 169 26 339 80 510 161 112 53 130 68 121 105 -11 43 -43 41 -151 -14 -55
-27 -129 -59 -163 -71 -94 -31 -279 -77 -342 -84 l-56 -7 -17 35 c-20 43 -66
68 -126 69 -59 1 -102 -22 -127 -68 l-19 -37 -55 7 c-62 8 -246 54 -342 85
-34 12 -107 44 -162 71 -103 51 -124 57 -144 37z m876 -204 c26 -18 29 -56 6
-78 -46 -46 -113 17 -73 68 24 30 36 32 67 10z"/>
</g>
</svg>
