<?xml version="1.0" standalone="no"?>
<!DOCTYPE svg PUBLIC "-//W3C//DTD SVG 20010904//EN"
 "http://www.w3.org/TR/2001/REC-SVG-20010904/DTD/svg10.dtd">
<svg version="1.0" xmlns="http://www.w3.org/2000/svg"
 width="447.000000pt" height="558.000000pt" viewBox="0 0 447.000000 558.000000"
 preserveAspectRatio="xMidYMid meet">

<g transform="translate(0.000000,558.000000) scale(0.100000,-0.100000)"
fill="#000000" stroke="none">
<path d="M1945 5454 c-469 -63 -897 -281 -1245 -634 -316 -320 -513 -686 -598
-1110 -25 -127 -26 -152 -26 -410 0 -270 0 -278 31 -425 55 -260 145 -489 294
-748 219 -380 552 -818 1012 -1332 211 -235 547 -572 617 -618 74 -48 157 -71
229 -63 126 15 182 61 580 481 557 588 813 905 1120 1389 279 439 406 811 427
1254 24 485 -162 1017 -502 1438 -336 416 -861 708 -1400 779 -143 18 -400 18
-539 -1z m500 -539 c580 -95 1115 -545 1308 -1101 76 -220 103 -400 94 -643
-7 -184 -37 -346 -97 -516 -171 -484 -534 -878 -969 -1050 -343 -136 -727
-144 -1070 -23 -358 126 -687 423 -894 808 -283 525 -288 1170 -12 1663 90
160 160 252 305 397 249 250 499 386 834 456 136 28 361 32 501 9z"/>
<path d="M2264 4655 c-3 -8 1 -43 10 -78 23 -90 21 -235 -4 -333 -39 -153
-119 -289 -277 -471 -194 -224 -284 -394 -300 -565 -3 -38 -10 -71 -14 -74
-15 -9 -78 58 -103 109 -87 185 -42 435 112 616 36 42 43 57 35 70 -18 29 -51
23 -145 -26 -214 -111 -403 -367 -475 -641 -34 -131 -43 -373 -19 -508 70
-401 308 -724 664 -903 38 -20 178 -61 205 -61 5 0 -19 15 -53 33 -35 17 -99
65 -142 106 -83 78 -132 153 -169 257 -29 82 -36 236 -15 334 22 104 92 243
154 303 l49 48 6 -76 c11 -146 89 -237 167 -195 35 19 43 69 24 172 -33 183
-21 297 45 422 44 86 151 197 240 248 62 36 165 68 177 55 4 -3 -8 -24 -25
-46 -17 -21 -44 -66 -59 -98 -24 -52 -27 -69 -27 -168 1 -95 5 -121 28 -185
70 -190 78 -223 79 -310 0 -63 -6 -101 -22 -145 -34 -93 -35 -112 -11 -120 44
-14 140 66 182 153 18 37 23 64 24 129 0 46 4 83 8 83 18 0 115 -108 145 -161
41 -72 72 -193 72 -279 0 -84 -29 -199 -71 -281 -38 -76 -158 -200 -239 -247
-57 -34 -56 -34 45 -11 22 5 69 22 105 36 345 143 593 444 681 830 18 80 22
128 22 258 0 141 -3 172 -26 258 -14 54 -46 139 -70 190 -72 152 -109 163
-121 37 -16 -173 -125 -354 -252 -416 -87 -43 -211 -43 -269 0 -20 14 -20 15
6 43 92 99 176 279 204 436 21 117 16 338 -10 457 -22 101 -93 273 -148 362
-93 150 -225 280 -349 344 -55 28 -67 29 -74 9z"/>
</g>
</svg>
