<?xml version="1.0" encoding="utf-8"?>
<!-- Generator: Adobe Illustrator 24.3.0, SVG Export Plug-In . SVG Version: 6.00 Build 0)  -->
<svg version="1.1" id="Laag_1" xmlns="http://www.w3.org/2000/svg" xmlns:xlink="http://www.w3.org/1999/xlink" x="0px" y="0px"
	 viewBox="0 0 530.1 345.2" style="enable-background:new 0 0 530.1 345.2;" xml:space="preserve">
<style type="text/css">
	.st0{fill:#1F262A;}
	.st1{fill:#ECF0F1;}
	.st2{fill:#E36840;}
	.st3{fill:#FFB337;}
	.st4{fill:none;stroke:#ECF0F1;stroke-width:20;stroke-miterlimit:10;}
	.st5{fill:#DC4655;}
	.st6{fill:#FFD164;}
</style>
<circle class="st0" cx="398.8" cy="136.4" r="99.1"/>
<ellipse transform="matrix(0.2134 -0.977 0.977 0.2134 140.0785 473.5734)" class="st1" cx="364.1" cy="149.8" rx="13" ry="20"/>
<path class="st0" d="M266.2,345.2c0.4-9.7,2.1-23.9,8-40c0,0,4.6-12.6,11-23c27.7-44.9,196.7-47.3,223.1-1.1
	c0.8,1.3,6.1,10.9,11.5,24.5c6.3,16,9.6,29.9,11.5,39.6"/>
<rect x="387.8" y="227.2" class="st0" width="22" height="40"/>
<path class="st2" d="M266.2,96.1v17.4c0,4.7,3.9,8.5,8.6,8.5h247.8c4.8,0,8.6-3.8,8.6-8.5V96.1c0-4.7-3.9-8.5-8.6-8.5H274.9
	C270.1,87.6,266.2,91.4,266.2,96.1L266.2,96.1z"/>
<path class="st2" d="M507.1,113.8H291.2v-21c0-51.1,37.7-92.8,84.3-92.8h47.7c46.5,0,84.3,41.6,84.3,92.9L507.1,113.8z"/>
<path class="st3" d="M342.2,76.3"/>
<line class="st4" x1="397.6" y1="26.2" x2="397.6" y2="99.6"/>
<ellipse transform="matrix(0.9754 -0.2206 0.2206 0.9754 -22.3795 99.1776)" class="st1" cx="432.9" cy="149.8" rx="20" ry="13"/>
<line class="st4" x1="434.4" y1="62.9" x2="360.9" y2="62.9"/>
<path class="st5" d="M125.9,50.9L4.5,261.2c-12.7,22,3.2,49.6,28.6,49.6h242.8c25.4,0,41.3-27.5,28.6-49.6L183.1,50.9
	C170.4,28.9,138.6,28.9,125.9,50.9L125.9,50.9z"/>
<path class="st6" d="M33.1,285.9c-4.1,0-6.2-2.6-7.1-4.1c-0.9-1.5-2.1-4.6,0-8.2L147.4,63.4c2.1-3.6,5.3-4.1,7.1-4.1
	c1.8,0,5,0.5,7.1,4.1L283,273.7c2.1,3.6,0.9,6.6,0,8.2c-0.9,1.5-3,4.1-7.1,4.1L33.1,285.9L33.1,285.9z"/>
<g>
	<path class="st0" d="M154.5,215.5c-8.7,0-15.7-7-15.7-15.7v-71.9c0-8.7,7-15.7,15.7-15.7c8.7,0,15.7,7,15.7,15.7v71.9
		C170.2,208.5,163.2,215.5,154.5,215.5z"/>
	<circle class="st0" cx="154.5" cy="248.1" r="15.7"/>
</g>
</svg>
