<?xml version="1.0" standalone="no"?>
<!DOCTYPE svg PUBLIC "-//W3C//DTD SVG 20010904//EN"
 "http://www.w3.org/TR/2001/REC-SVG-20010904/DTD/svg10.dtd">
<svg version="1.0" xmlns="http://www.w3.org/2000/svg"
 width="455.000000pt" height="410.000000pt" viewBox="0 0 455.000000 410.000000"
 preserveAspectRatio="xMidYMid meet">

<g transform="translate(0.000000,410.000000) scale(0.100000,-0.100000)"
fill="#000000" stroke="none">
<path d="M813 3963 c-19 -2 -41 -15 -53 -30 -20 -26 -20 -32 -18 -1189 3
-1046 5 -1165 19 -1179 13 -14 53 -16 255 -19 216 -3 249 -6 344 -29 58 -14
117 -30 132 -36 24 -9 31 -5 96 58 176 170 381 258 625 268 149 7 244 -6 367
-49 138 -48 313 -162 389 -255 26 -31 30 -33 57 -22 16 6 76 22 134 36 95 23
128 26 344 29 202 3 242 5 255 19 14 14 16 133 19 1180 l2 1164 -24 28 -24 28
-224 0 c-193 -1 -237 -4 -328 -23 -327 -71 -580 -201 -837 -429 l-83 -74 -68
62 c-195 179 -403 303 -642 383 -187 62 -281 77 -505 81 -110 2 -215 1 -232
-2z m787 -487 c145 -34 296 -93 343 -134 28 -24 23 -86 -9 -111 -35 -27 -53
-26 -122 5 -154 70 -344 114 -498 114 -67 0 -86 4 -108 21 -34 27 -36 82 -3
117 22 24 23 24 157 19 91 -4 170 -14 240 -31z m1717 12 c33 -31 32 -90 -3
-117 -22 -17 -41 -21 -108 -21 -153 0 -320 -37 -477 -106 -90 -40 -107 -41
-143 -13 -33 26 -37 86 -7 113 31 28 198 96 299 122 124 31 196 41 316 43 90
1 102 -1 123 -21z m-1996 -448 c138 -14 292 -49 414 -95 119 -45 228 -98 255
-125 27 -27 26 -84 0 -110 -29 -29 -71 -25 -150 15 -207 104 -457 165 -680
165 -34 0 -70 4 -80 10 -28 15 -43 67 -27 98 25 53 76 61 268 42z m2109 -3
c37 -19 52 -57 39 -96 -15 -41 -35 -51 -109 -51 -223 0 -473 -61 -680 -165
-79 -40 -121 -44 -150 -15 -26 26 -27 83 0 110 50 50 293 148 460 186 177 40
393 55 440 31z m-1937 -417 c175 -37 437 -139 494 -192 33 -31 32 -90 -3 -117
-37 -29 -53 -27 -152 23 -193 96 -376 144 -587 153 -150 6 -178 14 -195 59
-11 28 2 72 28 93 25 19 288 8 415 -19z m1947 20 c25 -13 41 -65 30 -95 -17
-44 -45 -52 -195 -58 -211 -9 -394 -57 -587 -153 -99 -50 -115 -52 -152 -23
-35 27 -36 86 -3 117 47 45 265 135 426 177 151 39 435 60 481 35z m-1947
-440 c175 -37 437 -139 494 -192 33 -31 32 -90 -3 -117 -15 -12 -35 -21 -44
-21 -10 0 -64 22 -121 49 -204 98 -423 151 -618 151 -105 0 -134 11 -151 56
-11 28 2 70 28 91 25 21 287 10 415 -17z m1949 16 c26 -19 39 -62 28 -90 -17
-45 -46 -56 -151 -56 -195 0 -414 -53 -618 -151 -57 -27 -111 -49 -121 -49 -9
0 -29 9 -44 21 -35 27 -36 86 -3 116 79 73 402 187 602 212 112 14 287 12 307
-3z"/>
<path d="M456 3791 c-30 -5 -54 -14 -62 -26 -21 -28 -21 -2572 0 -2600 13 -18
19 -19 82 -7 250 45 268 46 544 47 151 0 289 -3 306 -7 30 -7 31 -5 62 60 18
37 32 70 32 74 0 13 -179 48 -291 57 -66 6 -159 6 -220 1 -110 -9 -153 -4
-205 23 -47 24 -100 92 -113 142 -8 31 -11 375 -11 1144 l0 1101 -37 -1 c-21
-1 -60 -5 -87 -8z"/>
<path d="M3940 2699 c0 -769 -3 -1113 -11 -1144 -13 -50 -66 -118 -113 -142
-52 -27 -95 -32 -205 -23 -61 5 -154 5 -220 -1 -120 -10 -291 -45 -291 -60 0
-5 14 -38 32 -73 31 -63 33 -65 62 -58 17 4 155 7 306 6 276 0 286 -1 539 -45
69 -13 74 -12 87 6 21 28 21 2572 0 2600 -13 18 -79 33 -153 34 l-33 1 0
-1101z"/>
<path d="M150 3617 c-35 -4 -70 -13 -77 -19 -11 -8 -13 -281 -13 -1444 0
-1419 0 -1433 20 -1444 14 -8 38 -6 87 5 295 69 630 113 938 124 l190 6 7 94
c4 52 5 97 2 100 -3 3 -97 7 -210 9 -206 4 -355 -6 -508 -34 -187 -34 -236
-30 -295 28 -71 70 -65 -43 -71 1338 l-5 1245 -65 -8z"/>
<path d="M4300 2406 c0 -672 -4 -1238 -9 -1259 -20 -83 -89 -147 -169 -154
-26 -3 -94 4 -152 15 -171 33 -326 45 -544 40 -113 -2 -207 -6 -210 -9 -3 -3
-2 -48 2 -100 l7 -94 190 -6 c309 -11 644 -55 938 -124 49 -11 73 -13 87 -5
20 11 20 25 20 1444 0 1143 -3 1436 -13 1444 -7 6 -43 15 -80 20 l-67 9 0
-1221z"/>
<path d="M2103 1640 c-246 -49 -476 -234 -579 -465 -118 -269 -72 -610 115
-832 105 -125 216 -201 374 -256 88 -30 99 -32 247 -32 149 0 159 2 250 33
129 45 221 101 310 191 165 165 240 346 240 573 0 214 -73 398 -219 551 -109
115 -260 201 -410 233 -71 15 -260 17 -328 4z m183 -295 c11 -8 27 -27 34 -44
40 -98 -85 -177 -161 -102 -38 38 -39 87 -4 130 36 42 81 47 131 16z m16 -304
l33 -29 3 -255 3 -254 57 -6 c45 -5 62 -12 80 -32 28 -33 28 -65 1 -99 l-20
-26 -199 0 -199 0 -20 26 c-27 34 -27 66 2 99 17 20 34 27 80 32 l57 6 0 202
0 202 -42 6 c-57 8 -92 47 -84 91 10 53 37 66 132 66 78 0 86 -2 116 -29z"/>
</g>
</svg>
