<?xml version="1.0" standalone="no"?>
<!DOCTYPE svg PUBLIC "-//W3C//DTD SVG 20010904//EN"
 "http://www.w3.org/TR/2001/REC-SVG-20010904/DTD/svg10.dtd">
<svg version="1.0" xmlns="http://www.w3.org/2000/svg"
 width="558.000000pt" height="447.000000pt" viewBox="0 0 558.000000 447.000000"
 preserveAspectRatio="xMidYMid meet">

<g transform="translate(0.000000,447.000000) scale(0.100000,-0.100000)"
fill="#000000" stroke="none">
<path d="M3407 4385 c-104 -20 -209 -56 -310 -106 -214 -108 -355 -246 -451
-443 -76 -155 -90 -218 -90 -401 l0 -150 43 -126 c35 -99 42 -133 37 -162 -13
-70 -93 -120 -163 -102 -97 24 -183 236 -200 491 -3 52 -9 94 -12 94 -16 0
-111 -62 -153 -99 -185 -164 -269 -513 -153 -640 l33 -36 844 -5 843 -5 35
-22 c89 -55 95 -175 12 -238 -27 -20 -47 -20 -1762 -25 l-1735 -5 -48 -24
c-94 -46 -142 -156 -112 -256 18 -63 72 -128 122 -148 33 -13 262 -16 1765
-22 1658 -7 1728 -8 1758 -26 97 -59 92 -197 -9 -249 -40 -20 -54 -20 -886
-20 l-846 0 -23 -24 c-77 -77 -50 -353 51 -525 64 -108 178 -211 260 -235 21
-7 22 -5 22 102 1 200 56 396 127 451 54 42 158 20 199 -43 23 -34 15 -102
-21 -191 -25 -64 -28 -81 -28 -200 -1 -188 37 -320 137 -471 132 -201 364
-358 635 -430 129 -35 342 -43 484 -20 207 34 407 119 570 241 101 76 178 159
258 277 50 73 65 88 128 123 108 60 182 118 276 215 119 124 197 235 272 385
413 832 171 1916 -533 2392 -73 49 -92 68 -128 128 -153 252 -417 444 -730
532 -77 21 -116 26 -265 29 -126 2 -197 -1 -253 -11z m678 -674 c542 -116 991
-508 1159 -1015 42 -126 33 -189 -33 -233 -43 -29 -102 -30 -146 -3 -36 22
-42 34 -84 159 -17 50 -42 114 -57 143 -130 260 -397 506 -664 612 -143 57
-211 68 -430 72 -221 5 -247 11 -284 61 -30 41 -33 114 -6 157 12 20 22 36 23
36 1 0 20 7 42 15 64 23 365 20 480 -4z m611 -2416 c54 -35 77 -108 55 -168
-31 -80 -267 -224 -491 -300 -168 -57 -235 -67 -452 -67 -174 0 -196 2 -225
20 -59 36 -80 116 -48 184 28 59 54 66 237 66 89 0 191 5 226 10 150 25 349
111 482 210 37 27 78 54 91 60 32 13 93 6 125 -15z"/>
<path d="M944 3971 c-76 -34 -117 -117 -95 -191 15 -50 56 -99 98 -116 26 -11
148 -14 633 -14 571 0 603 1 638 19 40 20 72 68 139 204 30 61 35 81 27 95
-10 16 -60 17 -705 19 -658 3 -696 2 -735 -16z"/>
<path d="M555 3007 c-80 -44 -105 -151 -56 -231 42 -68 27 -66 555 -66 l477 0
40 38 c81 75 67 193 -31 260 l-33 22 -456 0 c-453 0 -456 0 -496 -23z"/>
<path d="M514 1621 c-97 -44 -119 -166 -47 -252 50 -59 48 -59 560 -59 466 0
468 0 507 23 62 35 81 68 81 140 0 75 -27 120 -89 148 -38 17 -74 19 -506 19
-433 0 -468 -2 -506 -19z"/>
<path d="M952 697 c-73 -23 -125 -123 -103 -197 15 -51 70 -106 118 -119 25
-7 285 -11 750 -11 706 0 712 0 718 20 5 15 -12 45 -66 118 -40 53 -83 111
-96 128 -12 18 -42 41 -66 53 -43 21 -53 21 -633 20 -382 -1 -601 -5 -622 -12z"/>
</g>
</svg>
