<?xml version="1.0" encoding="utf-8"?>
<!-- Generator: Adobe Illustrator 24.3.0, SVG Export Plug-In . SVG Version: 6.00 Build 0)  -->
<svg version="1.1" id="Laag_1" xmlns="http://www.w3.org/2000/svg" xmlns:xlink="http://www.w3.org/1999/xlink" x="0px" y="0px"
	 viewBox="0 0 530.1 345.2" style="enable-background:new 0 0 530.1 345.2;" xml:space="preserve">
<style type="text/css">
	.st0{fill:#1F262A;}
	.st1{fill:#838996;}
	.st2{fill:#E36840;}
	.st3{fill:#ECF0F1;}
	.st4{fill:#FFB337;}
	.st5{fill:none;stroke:#ECF0F1;stroke-width:20;stroke-miterlimit:10;}
	.st6{fill:#DC4655;}
	.st7{fill:#FFD164;}
</style>
<rect x="125.5" y="237.2" class="st0" width="17" height="53"/>
<rect x="109.5" y="222" class="st0" width="47" height="30.5"/>
<rect x="10" y="112" class="st0" width="17.1" height="86"/>
<rect x="239.8" y="108.2" class="st0" width="17.1" height="86"/>
<rect x="19.8" y="60.2" class="st1" width="228.5" height="177"/>
<rect x="49" y="77.8" class="st0" width="170" height="137"/>
<rect y="259.8" class="st1" width="265" height="85.5"/>
<rect x="18.8" y="274.2" class="st0" width="228.5" height="71"/>
<rect x="125.5" y="7.2" class="st0" width="17" height="53"/>
<ellipse class="st2" cx="134.1" cy="23.6" rx="29.9" ry="23.6"/>
<ellipse transform="matrix(0.2378 -0.9713 0.9713 0.2378 -66.3167 204.3173)" class="st3" cx="97" cy="144.4" rx="16.1" ry="20.8"/>
<ellipse transform="matrix(0.986 -0.1667 0.1667 0.986 -21.7069 30.1928)" class="st3" cx="169" cy="144.4" rx="20.8" ry="16.1"/>
<circle class="st0" cx="398.8" cy="136.4" r="99.1"/>
<ellipse transform="matrix(0.2134 -0.977 0.977 0.2134 140.0785 473.5734)" class="st3" cx="364.1" cy="149.8" rx="13" ry="20"/>
<path class="st0" d="M266.2,345.2c0.4-9.7,2.1-23.9,8-40c0,0,4.6-12.6,11-23c27.7-44.9,196.7-47.3,223.1-1.1
	c0.8,1.3,6.1,10.9,11.5,24.5c6.3,16,9.6,29.9,11.5,39.6"/>
<rect x="387.8" y="227.2" class="st0" width="22" height="40"/>
<path class="st2" d="M266.2,96.1v17.4c0,4.7,3.9,8.5,8.6,8.5h247.8c4.8,0,8.6-3.8,8.6-8.5V96.1c0-4.7-3.9-8.5-8.6-8.5H274.9
	C270.1,87.6,266.2,91.4,266.2,96.1L266.2,96.1z"/>
<path class="st2" d="M507.1,113.8H291.2v-21c0-51.1,37.7-92.8,84.3-92.8h47.7c46.5,0,84.3,41.6,84.3,92.9L507.1,113.8z"/>
<path class="st4" d="M342.2,76.3"/>
<line class="st5" x1="397.6" y1="26.2" x2="397.6" y2="99.6"/>
<ellipse transform="matrix(0.9754 -0.2206 0.2206 0.9754 -22.3795 99.1776)" class="st3" cx="432.9" cy="149.8" rx="20" ry="13"/>
<line class="st5" x1="434.4" y1="62.9" x2="360.9" y2="62.9"/>
<path class="st6" d="M229.2,20.6L77.6,283.3c-15.9,27.5,4,61.9,35.8,61.9h303.4c31.8,0,51.6-34.4,35.8-61.9L300.8,20.6
	C284.9-6.9,245.1-6.9,229.2,20.6L229.2,20.6z"/>
<path class="st7" d="M113.3,314.2c-5.1,0-7.7-3.2-8.8-5.1c-1.1-1.9-2.6-5.8,0-10.2L256.2,36.1c2.6-4.4,6.6-5.1,8.8-5.1
	c2.2,0,6.3,0.7,8.8,5.1l151.7,262.7c2.6,4.4,1.1,8.3,0,10.2c-1.1,1.9-3.7,5.1-8.8,5.1L113.3,314.2L113.3,314.2z"/>
<g>
	<path class="st0" d="M265,226.2c-10.8,0-19.6-8.8-19.6-19.6v-89.9c0-10.8,8.8-19.6,19.6-19.6c10.8,0,19.6,8.8,19.6,19.6v89.9
		C284.6,217.5,275.8,226.2,265,226.2z"/>
	<circle class="st0" cx="265" cy="267" r="19.6"/>
</g>
</svg>
