<svg height="512" viewBox="0 0 60 54" width="512" xmlns="http://www.w3.org/2000/svg"><g id="038---Toxic" fill="none" transform="translate(-1 -1)"><path id="Shape" d="m27.15 4.252-24.543 42.962c-.80501772 1.3890835-.8127723 3.100947-.02037219 4.4972667s2.26601976 2.2675153 3.87137219 2.2887333h49.084c1.6053524-.021218 3.0789721-.8924136 3.8713722-2.2887333s.7846455-3.1081832-.0203722-4.4972667l-24.543-42.962c-.7822602-1.39106185-2.2540727-2.25196213-3.85-2.25196213s-3.0677398.86090028-3.85 2.25196213z" fill="#f0c419"/><path id="Shape" d="m60.26 46.72-24.54-42.96c-.9589765-1.70547628-2.7633996-2.76097946-4.72-2.76097946s-3.7610235 1.05550318-4.72 2.76097946l-24.54 42.96c-.98278783 1.6983152-.98958172 3.7908241-.01784256 5.4954851.97173916 1.7046611 2.77576145 2.7649173 4.73784256 2.7845149h49.08c1.9620811-.0195976 3.7661034-1.0798538 4.7378426-2.7845149.9717391-1.704661.9649452-3.7971699-.0178426-5.4954851zm-4.72 6.28h-49.08c-1.24896271-.0208951-2.39318394-.7025106-3.00627126-1.7908434-.61308731-1.0883329-.60308817-2.4201519.02627126-3.4991566l24.54-42.96c.6025444-1.0805505 1.7428059-1.75027078 2.98-1.75027078s2.3774556.66972028 2.98 1.75027078l24.54 42.96c.6293594 1.0790047.6393586 2.4108237.0262713 3.4991566-.6130874 1.0883328-1.7573086 1.7699483-3.0062713 1.7908434z" fill="#464f5d"/><path id="Shape" d="m42.76 41.43-1.06.83-4.637-1.982c.047-1 .118-1.844.2-2.668.1 0-.277.146 4.434-1.87l1.06.83c.560907.4430094 1.3155491.5531266 1.9796599.2888716.6641109-.2642551 1.1367962-.8627357 1.2400001-1.5700001.1032038-.7072644-.178753-1.4158622-.73966-1.8588715l-1.237-.98v-1.45c0-1.1045695-.8954305-2-2-2s-2 .8954305-2 2v-2c0-4.418278-3.581722-8-8-8h-2c-4.418278 0-8 3.581722-8 8v2c0-1.1045695-.8954305-2-2-2s-2 .8954305-2 2v1.45l-1.24.98c-.560907.4430093-.8428638 1.1516071-.7396599 1.8588715.1032038.7072644.5758891 1.305745 1.24 1.5700001.6641108.264255 1.4187529.1541378 1.9796599-.2888716l1.06-.83c1.4441025.7008388 2.9241575 1.3250388 4.434 1.87.086.827.157 1.676.2 2.668l-4.634 1.982-1.06-.83c-.560907-.4430094-1.3155491-.5531266-1.9796599-.2888715-.6641109.264255-1.1367962.8627356-1.24 1.57-.1032039.7072644.1787529 1.4158622.7396599 1.8588715l1.24.98v1.45c0 1.1045695.8954305 2 2 2s2-.8954305 2-2v-1.11l3.673-1.577c2 3.582 8.662 3.584 10.656 0 .095.046.891.386 3.671 1.58v1.107c0 1.1045695.8954305 2 2 2s2-.8954305 2-2v-1.45l1.24-.98c.8670871-.6848331 1.0148331-1.9429129.33-2.81s-1.9429129-1.0148331-2.81-.33zm-15.846.888c.0559604-.2061281.0802381-.4195697.072-.633-.021-1.213-.071-2.212-.142-3.113 1.086.552 1.756.428 4.156.428 2.284 0 3.078.12 4.157-.428-.071.911-.125 1.925-.147 3.17.0000411.1944319.0252506.3880406.075.576-1.2954041.5233445-2.689843.7561492-4.085.682-1.3954832.0741661-2.7902513-.1586366-4.086-.682z" fill="#464f5d"/><g fill="#f0c419"><circle id="Oval" cx="27" cy="31" r="2"/><circle id="Oval" cx="35" cy="31" r="2"/></g></g></svg>