<?xml version="1.0" standalone="no"?>
<!DOCTYPE svg PUBLIC "-//W3C//DTD SVG 20010904//EN"
 "http://www.w3.org/TR/2001/REC-SVG-20010904/DTD/svg10.dtd">
<svg version="1.0" xmlns="http://www.w3.org/2000/svg"
 width="195.000000pt" height="428.000000pt" viewBox="0 0 195.000000 428.000000"
 preserveAspectRatio="xMidYMid meet">

<g transform="translate(0.000000,428.000000) scale(0.100000,-0.100000)"
fill="#000000" stroke="none">
<path d="M854 4225 c-86 -19 -150 -54 -217 -122 -147 -147 -182 -354 -91 -541
97 -199 310 -300 518 -246 246 63 397 302 345 546 -39 180 -196 335 -373 367
-74 14 -105 13 -182 -4z"/>
<path d="M440 3135 c-36 -8 -97 -30 -136 -50 -128 -63 -243 -212 -273 -353 -7
-35 -11 -237 -11 -600 l0 -547 23 -40 c32 -57 79 -85 140 -85 67 0 121 31 147
85 19 40 20 62 20 511 0 528 -2 514 68 514 43 0 55 -7 71 -37 8 -16 11 -329
11 -1190 0 -1112 1 -1170 19 -1208 61 -135 235 -151 327 -29 l29 37 5 607 c5
558 6 608 23 633 14 22 25 27 57 27 27 0 47 -7 60 -20 20 -20 20 -33 20 -617
0 -559 2 -601 19 -638 71 -158 293 -142 349 24 9 25 12 344 12 1193 0 1299 -5
1218 69 1218 26 0 44 -7 57 -21 17 -19 19 -50 24 -508 6 -540 3 -518 73 -562
25 -16 45 -19 94 -17 73 4 106 25 140 84 l23 39 0 556 c0 479 -2 563 -16 610
-52 176 -199 319 -389 377 -73 23 -959 28 -1055 7z"/>
</g>
</svg>
